<svg width="121" height="52" viewBox="0 0 121 52" fill="none" xmlns="http://www.w3.org/2000/svg">
<path d="M109.175 3.78522C113.872 3.78555 117.68 7.59384 117.68 12.2911V29.044C117.68 33.7415 113.872 37.5495 109.175 37.5499H31.6658C30.0489 42.5345 26.3082 45.2664 22.4451 46.7188C18.3878 48.2442 14.1005 48.4066 11.6775 48.3477C10.7547 48.3253 10.1391 47.6686 9.97437 46.96C9.81415 46.2705 10.0538 45.4505 10.7771 44.9835C11.5779 44.4665 12.5453 43.778 13.4226 42.9825C14.3105 42.1773 15.0427 41.3192 15.45 40.4756C15.8245 39.6996 16.0461 38.6807 16.1541 37.5499H12.2468C7.54911 37.5499 3.74106 33.7416 3.74097 29.044V12.2911C3.74121 7.59391 7.54831 3.78551 12.2458 3.78522H109.175Z" fill="#E2F4FF" stroke="#E2F4FF" stroke-width="2.43029"/>
<path d="M110.389 1.96252V2.03577C115.521 2.63736 119.503 6.9986 119.503 12.2916V29.0446C119.503 34.6598 115.021 39.2284 109.44 39.3698H109.424L109.19 39.3727H32.9338C30.9052 44.2419 26.97 46.9645 23.0872 48.4244C18.7112 50.0697 14.1526 50.2308 11.6331 50.1696C9.76555 50.124 8.52523 48.7741 8.19946 47.3727C7.88422 46.0161 8.35119 44.3844 9.78149 43.4567L10.0833 43.2594C10.7648 42.8046 11.5201 42.2476 12.1985 41.6324C13.0048 40.9013 13.5463 40.2271 13.8088 39.6832L13.8782 39.527C13.8987 39.4777 13.919 39.4264 13.9387 39.3727H12.2463C6.63096 39.3725 2.06257 34.8918 1.92114 29.3102V29.2946L1.91821 29.0592V12.2916C1.91821 6.99911 5.89893 2.63775 11.0305 2.03577V1.96252H110.389ZM12.2463 6.21545C8.89111 6.21559 6.17114 8.93598 6.17114 12.2916V29.0446C6.17136 32.3998 8.89112 35.1196 12.2463 35.1198H18.6907L18.6584 36.3668C18.6136 38.0975 18.3729 40.0111 17.6389 41.5319C17.0388 42.7751 16.0519 43.8788 15.0549 44.7828C14.609 45.1872 14.1469 45.5619 13.6965 45.9039C15.9442 45.8196 18.8509 45.4738 21.5901 44.444C25.1877 43.0913 28.397 40.6081 29.5793 36.0309L29.8147 35.1198H109.174C112.529 35.1197 115.25 32.3998 115.25 29.0446V12.2916C115.25 9.04087 112.697 6.38603 109.487 6.22327L109.174 6.21545H12.2463Z" fill="#0E296D" stroke="#E2F4FF" stroke-width="2.43029"/>
<path d="M19.5591 15.7899C20.3562 15.7899 21.0172 15.8919 21.5422 16.0961C22.0671 16.3002 22.456 16.5773 22.7087 16.9273C22.9712 17.2772 23.1024 17.6661 23.1024 18.0938C23.1024 18.541 23.0003 18.925 22.7962 19.2457C22.6018 19.5665 22.247 19.8533 21.7317 20.1061L21.7026 20.0332C22.2275 20.1887 22.6164 20.4415 22.8691 20.7914C23.1316 21.1317 23.2628 21.5302 23.2628 21.9871C23.2628 22.2885 23.1948 22.5704 23.0587 22.8329C22.9323 23.0953 22.7427 23.3286 22.49 23.5328C22.2372 23.7272 21.9213 23.8827 21.5422 23.9994C21.1728 24.1063 20.745 24.1598 20.259 24.1598H18.4654V22.6287H19.5153C19.8847 22.6287 20.1812 22.6093 20.4048 22.5704C20.6284 22.5315 20.7936 22.4586 20.9006 22.3517C20.9783 22.2739 21.0318 22.1913 21.061 22.1038C21.0999 22.0066 21.1193 21.8948 21.1193 21.7684C21.1193 21.6226 21.0853 21.4913 21.0172 21.3747C20.9492 21.258 20.8617 21.1657 20.7548 21.0976C20.6284 21.0199 20.4777 20.9615 20.3027 20.9226C20.1277 20.8838 19.8507 20.8643 19.4716 20.8643H18.6404V19.3478H19.3549C19.666 19.3478 19.9285 19.3235 20.1423 19.2749C20.3659 19.2166 20.5506 19.1194 20.6964 18.9833C20.7742 18.9055 20.8374 18.8132 20.886 18.7062C20.9346 18.5896 20.9589 18.4632 20.9589 18.3271C20.9589 17.9966 20.8374 17.7487 20.5944 17.5834C20.3513 17.4084 19.9819 17.321 19.4861 17.321C18.7473 17.321 18.1349 17.4765 17.6488 17.7876C17.1628 18.0987 16.7982 18.5312 16.5552 19.0853C16.3122 19.6395 16.1907 20.2908 16.1907 21.0393C16.1907 21.5059 16.2198 21.9823 16.2782 22.4683C16.3462 22.9544 16.4434 23.4113 16.5698 23.839L14.5575 24.2181C14.3923 23.7321 14.261 23.1925 14.1638 22.5996C14.0666 21.9968 14.018 21.4379 14.018 20.9226C14.018 19.863 14.2221 18.9541 14.6304 18.1959C15.0484 17.4279 15.6657 16.8349 16.4823 16.4169C17.3086 15.9989 18.3342 15.7899 19.5591 15.7899ZM19.4861 27.8344C19.0487 27.8344 18.6161 27.8101 18.1884 27.7615C17.7704 27.7129 17.3524 27.6303 16.9343 27.5136C16.5163 27.4067 16.0935 27.256 15.6657 27.0616L16.5115 25.6617C16.8128 25.7978 17.1093 25.9096 17.401 25.9971C17.7023 26.0943 18.0085 26.1624 18.3196 26.2012C18.6404 26.2401 18.9806 26.2596 19.3403 26.2596C19.7778 26.2596 20.1277 26.2158 20.3902 26.1283C20.6527 26.0408 20.8423 25.9193 20.9589 25.7638C21.0756 25.6083 21.1339 25.4284 21.1339 25.2243C21.1339 24.9715 21.0513 24.7528 20.886 24.5681C20.7207 24.3737 20.4923 24.223 20.2007 24.1161L21.3818 22.9058C21.7706 23.0321 22.1011 23.2023 22.3733 23.4161C22.6552 23.63 22.874 23.8876 23.0295 24.189C23.1851 24.4903 23.2628 24.8451 23.2628 25.2534C23.2628 25.7589 23.1316 26.2061 22.8691 26.5949C22.6066 26.9838 22.1935 27.2852 21.6297 27.499C21.0756 27.7226 20.3611 27.8344 19.4861 27.8344ZM23.4508 11.7507C23.8785 11.7507 24.2625 11.7945 24.6027 11.882C24.943 11.9597 25.2443 12.0861 25.5068 12.2611C25.8373 12.475 26.0949 12.7326 26.2796 13.0339C26.4741 13.3256 26.615 13.7095 26.7025 14.1859C26.79 14.6525 26.8338 15.2698 26.8338 16.0378V24.1598H24.6757V16.3731C24.6757 15.8871 24.6659 15.4739 24.6465 15.1337C24.627 14.7837 24.5882 14.497 24.5298 14.2734C24.4812 14.0401 24.4083 13.8554 24.3111 13.7193C24.2139 13.5832 24.0972 13.4762 23.9611 13.3985C23.8251 13.3207 23.6452 13.2818 23.4216 13.2818C23.2564 13.2818 23.096 13.3207 22.9404 13.3985C22.7849 13.4665 22.6634 13.5783 22.5759 13.7338C22.4787 13.8797 22.4301 14.0692 22.4301 14.3025C22.4301 14.39 22.4398 14.4824 22.4592 14.5796C22.469 14.6671 22.4835 14.7497 22.503 14.8275L20.4032 15.0754C20.3643 14.9587 20.3352 14.8372 20.3157 14.7108C20.2963 14.5747 20.2865 14.4338 20.2865 14.288C20.2865 13.7241 20.4275 13.2575 20.7094 12.8881C20.9816 12.509 21.3559 12.2271 21.8322 12.0424C22.3086 11.8479 22.8481 11.7507 23.4508 11.7507ZM33.4453 28.7093C32.3663 28.7093 31.4573 28.5197 30.7185 28.1406C29.9797 27.7615 29.4208 27.1831 29.0416 26.4054C28.6722 25.6277 28.4875 24.6361 28.4875 23.4307V19.377C28.4875 18.1716 28.6722 17.18 29.0416 16.4023C29.4208 15.6246 29.9797 15.0462 30.7185 14.6671C31.4573 14.288 32.3663 14.0984 33.4453 14.0984V15.6732C32.3857 15.6732 31.5886 15.9794 31.0539 16.5919C30.529 17.1946 30.2665 18.1424 30.2665 19.4353V23.3724C30.2665 24.6653 30.529 25.6131 31.0539 26.2158C31.5886 26.8283 32.3857 27.1345 33.4453 27.1345V28.7093ZM34.1516 18.8375V18.6916H36.2951C36.4118 18.9055 36.5479 19.1437 36.7034 19.4061C36.8687 19.6686 37.0388 19.9262 37.2138 20.179C37.3888 20.4317 37.5443 20.6505 37.6804 20.8352V21.0247H36.5284C36.3535 20.8886 36.1445 20.7282 35.9014 20.5435C35.6681 20.3491 35.43 20.145 35.1869 19.9311C34.9439 19.7172 34.73 19.5131 34.5453 19.3187C34.3606 19.1242 34.2294 18.9638 34.1516 18.8375ZM36.9805 18.8375V18.6916H39.124C39.2407 18.9055 39.3816 19.1437 39.5469 19.4061C39.7121 19.6686 39.8774 19.9262 40.0426 20.179C40.2176 20.4317 40.3732 20.6505 40.5093 20.8352V21.0247H39.3573C39.1823 20.8886 38.9733 20.7282 38.7303 20.5435C38.497 20.3491 38.2588 20.145 38.0158 19.9311C37.7728 19.7172 37.5589 19.5131 37.3742 19.3187C37.1895 19.1242 37.0583 18.9638 36.9805 18.8375ZM47.7058 23.5036C47.317 23.5036 46.9621 23.4113 46.6413 23.2266C46.3303 23.0419 46.0775 22.7891 45.8831 22.4683C45.6984 22.1475 45.606 21.7878 45.606 21.3893C45.606 21.0004 45.6935 20.6505 45.8685 20.3394C46.0532 20.0186 46.306 19.7658 46.6268 19.5811C46.9476 19.3964 47.3072 19.3041 47.7058 19.3041C48.1141 19.3041 48.4738 19.3964 48.7849 19.5811C49.1057 19.7561 49.3535 20.004 49.5285 20.3248C49.7132 20.6359 49.8056 20.9956 49.8056 21.4038C49.8056 21.8121 49.7084 22.1767 49.5139 22.4975C49.3292 22.8086 49.0765 23.0564 48.7557 23.2411C48.4349 23.4161 48.0849 23.5036 47.7058 23.5036ZM52.7568 17.0731L51.2111 14.915H53.2817L54.3608 17.0731H52.7568ZM62.7002 21.1997C62.6905 21.851 62.5932 22.4294 62.4085 22.9349C62.2336 23.4404 61.9759 23.8682 61.6357 24.2181C61.2955 24.5584 60.8872 24.8208 60.4108 25.0055C59.9442 25.1805 59.4144 25.268 58.8214 25.268C58.2673 25.268 57.757 25.1805 57.2903 25.0055C56.8237 24.8208 56.4203 24.5584 56.0801 24.2181C55.7398 23.8682 55.4725 23.4404 55.2781 22.9349C55.0934 22.4294 54.9962 21.851 54.9864 21.1997H57.2029C57.2126 21.7052 57.2709 22.1329 57.3778 22.4829C57.4945 22.8231 57.6743 23.0807 57.9174 23.2557C58.1604 23.4307 58.4715 23.5182 58.8506 23.5182C59.2297 23.5182 59.5359 23.4307 59.7692 23.2557C60.0123 23.0807 60.1921 22.8231 60.3088 22.4829C60.4254 22.1329 60.4837 21.7052 60.4837 21.1997H62.7002ZM67.6679 22.235V20.5727H71.9841V22.235H67.6679ZM76.8716 18.8375V18.6916H79.0151C79.1317 18.9055 79.2678 19.1437 79.4234 19.4061C79.5886 19.6686 79.7588 19.9262 79.9337 20.179C80.1087 20.4317 80.2643 20.6505 80.4004 20.8352V21.0247H79.2484C79.0734 20.8886 78.8644 20.7282 78.6214 20.5435C78.3881 20.3491 78.1499 20.145 77.9069 19.9311C77.6639 19.7172 77.45 19.5131 77.2653 19.3187C77.0806 19.1242 76.9493 18.9638 76.8716 18.8375ZM79.7004 18.8375V18.6916H81.844C81.9606 18.9055 82.1016 19.1437 82.2668 19.4061C82.4321 19.6686 82.5973 19.9262 82.7626 20.179C82.9376 20.4317 83.0931 20.6505 83.2292 20.8352V21.0247H82.0773C81.9023 20.8886 81.6933 20.7282 81.4502 20.5435C81.2169 20.3491 80.9788 20.145 80.7357 19.9311C80.4927 19.7172 80.2788 19.5131 80.0941 19.3187C79.9094 19.1242 79.7782 18.9638 79.7004 18.8375ZM87.5094 28.7093V27.1345C88.5787 27.1345 89.3759 26.8283 89.9008 26.2158C90.4258 25.6131 90.6882 24.6653 90.6882 23.3724V19.4353C90.6882 18.1424 90.4258 17.1946 89.9008 16.5919C89.3759 15.9794 88.5787 15.6732 87.5094 15.6732V14.0984C88.5982 14.0984 89.5071 14.288 90.2362 14.6671C90.975 15.0462 91.5291 15.6246 91.8985 16.4023C92.2776 17.18 92.4672 18.1716 92.4672 19.377V23.4307C92.4672 24.6361 92.2776 25.6277 91.8985 26.4054C91.5291 27.1831 90.975 27.7615 90.2362 28.1406C89.5071 28.5197 88.5982 28.7093 87.5094 28.7093ZM102.916 25.7346C102.819 25.1028 102.537 24.4223 102.07 23.6932C101.613 22.9641 100.962 22.2788 100.116 21.6372C99.2607 20.9858 98.4344 20.5824 97.6372 20.4269V19.8144C98.4441 19.6297 99.2266 19.2701 99.9849 18.7354C100.743 18.2007 101.385 17.564 101.91 16.8252C102.435 16.0767 102.77 15.3135 102.916 14.5358H103.528C103.616 15.0316 103.791 15.5323 104.053 16.0378C104.325 16.5433 104.67 17.0293 105.089 17.4959C105.507 17.9528 105.968 18.366 106.474 18.7354C107.242 19.2798 108.029 19.6395 108.836 19.8144V20.4269C108.292 20.5338 107.733 20.7525 107.159 21.083C106.595 21.4136 106.07 21.8024 105.584 22.2496C105.098 22.6968 104.7 23.1682 104.389 23.664C103.912 24.4223 103.625 25.1125 103.528 25.7346H102.916ZM103.12 25.3847H103.324C103.373 24.8792 103.45 24.3737 103.557 23.8682C103.674 23.3529 103.805 22.8766 103.951 22.4392C104.107 22.0017 104.267 21.642 104.432 21.3601C104.763 21.1754 105.157 21.0053 105.613 20.8497C106.08 20.6942 106.561 20.563 107.057 20.456C107.563 20.3491 108.029 20.2811 108.457 20.2519V20.0477C108.029 20.0089 107.558 19.936 107.042 19.829C106.537 19.7124 106.051 19.5763 105.584 19.4207C105.118 19.2555 104.734 19.0853 104.432 18.9104C104.267 18.6187 104.107 18.2591 103.951 17.8313C103.805 17.3939 103.674 16.9273 103.557 16.4315C103.45 15.926 103.373 15.4205 103.324 14.915H103.12C103.081 15.3719 103.008 15.8482 102.901 16.344C102.804 16.83 102.678 17.2967 102.522 17.7438C102.367 18.191 102.196 18.5798 102.012 18.9104C101.701 19.0853 101.317 19.2555 100.86 19.4207C100.403 19.5763 99.9217 19.7124 99.4162 19.829C98.9107 19.936 98.4344 20.0089 97.9872 20.0477V20.2519C98.4344 20.2811 98.9058 20.3491 99.4016 20.456C99.8974 20.563 100.374 20.6942 100.831 20.8497C101.288 21.0053 101.681 21.1754 102.012 21.3601C102.196 21.6712 102.362 22.0552 102.508 22.5121C102.663 22.9592 102.794 23.4356 102.901 23.9411C103.008 24.4369 103.081 24.918 103.12 25.3847Z" fill="#0E296D"/>
</svg>
