<svg width="125" height="128" viewBox="0 0 125 128" fill="none" xmlns="http://www.w3.org/2000/svg">
<mask id="path-1-outside-1_483_394" maskUnits="userSpaceOnUse" x="0.1439" y="0.0474243" width="125" height="128" fill="black">
<rect fill="white" x="0.1439" y="0.0474243" width="125" height="128"/>
<path d="M40.6768 81.5543C41.6131 82.2155 42.6847 82.6601 43.8141 82.856C44.9435 83.0519 46.1023 82.9942 47.2066 82.687C48.3109 82.3798 49.3331 81.8308 50.199 81.0798C51.065 80.3288 51.7531 79.3946 52.2135 78.3449L55.8691 67.2354C56.7582 64.5626 58.2577 62.1337 60.2486 60.1411C62.2396 58.1484 64.6673 56.647 67.3394 55.7557L77.9646 52.3042C79.4747 51.7788 80.7806 50.7902 81.6962 49.4793C82.4031 48.4855 82.8636 47.3378 83.0395 46.1309C83.2155 44.924 83.1019 43.6926 82.7082 42.5383C82.3144 41.384 81.6518 40.3398 80.775 39.4921C79.8982 38.6443 78.8324 38.0172 77.6655 37.6625L67.1495 34.2442C64.4759 33.3574 62.0457 31.8599 60.0515 29.8706C58.0572 27.8813 56.5537 25.4548 55.6602 22.7835L52.2087 12.1631C51.678 10.6583 50.6925 9.35587 49.3886 8.43618C48.077 7.53175 46.5214 7.04742 44.9282 7.04742C43.335 7.04742 41.7795 7.53175 40.4679 8.43618C39.1438 9.37248 38.1474 10.7011 37.6193 12.2343L34.125 22.9876C33.2336 25.5896 31.7621 27.9548 29.8218 29.9041C27.8815 31.8535 25.5232 33.336 22.9254 34.2395L12.2907 37.6863C10.7775 38.2212 9.46856 39.2145 8.54613 40.528C7.6237 41.8414 7.13362 43.4098 7.14406 45.0148C7.15451 46.6198 7.66497 48.1816 8.60442 49.483C9.54386 50.7843 10.8656 51.7605 12.3857 52.2757L22.9064 55.694C26.3173 56.8387 29.3158 58.9621 31.5281 61.7994C32.791 63.4279 33.7642 65.2557 34.4051 67.2117L37.8614 77.8179C38.3931 79.3276 39.3806 80.6332 40.6862 81.5543M92.5847 119.508C93.551 120.191 94.7059 120.556 95.8891 120.553C97.0642 120.557 98.2118 120.197 99.1744 119.523C100.166 118.823 100.907 117.825 101.292 116.674L103.058 111.248C103.432 110.121 104.062 109.097 104.9 108.256C105.738 107.416 106.761 106.782 107.886 106.405L113.422 104.61C114.538 104.214 115.505 103.482 116.189 102.515C116.873 101.547 117.242 100.392 117.244 99.2076C117.244 97.9918 116.855 96.808 116.134 95.8291C115.413 94.8501 114.398 94.1275 113.237 93.7668L107.806 92.0102C106.678 91.6362 105.654 91.0047 104.813 90.1657C103.973 89.3268 103.339 88.3036 102.963 87.1771L101.159 81.6557C100.77 80.5287 100.037 79.5523 99.0638 78.8638C98.0905 78.1753 96.9258 77.8095 95.7336 77.8179C94.5415 77.8263 93.382 78.2084 92.4185 78.9106C91.455 79.6127 90.736 80.5993 90.3628 81.7316L88.5872 87.1724C88.2234 88.2843 87.6091 89.2979 86.7917 90.135C85.9744 90.9721 84.9758 91.6104 83.8729 92.0007L78.3371 93.7953C77.2182 94.1906 76.2491 94.9226 75.5631 95.8909C74.877 96.8592 74.5077 98.0162 74.5058 99.2029C74.507 100.4 74.8852 101.566 75.5865 102.536C76.2879 103.505 77.2768 104.23 78.4131 104.606L83.8444 106.372C84.9759 106.745 86.0038 107.379 86.845 108.223C87.6862 109.066 88.3172 110.096 88.6869 111.229L90.4863 116.75C90.8789 117.866 91.609 118.831 92.5752 119.513"/>
</mask>
<path d="M40.6768 81.5543C41.6131 82.2155 42.6847 82.6601 43.8141 82.856C44.9435 83.0519 46.1023 82.9942 47.2066 82.687C48.3109 82.3798 49.3331 81.8308 50.199 81.0798C51.065 80.3288 51.7531 79.3946 52.2135 78.3449L55.8691 67.2354C56.7582 64.5626 58.2577 62.1337 60.2486 60.1411C62.2396 58.1484 64.6673 56.647 67.3394 55.7557L77.9646 52.3042C79.4747 51.7788 80.7806 50.7902 81.6962 49.4793C82.4031 48.4855 82.8636 47.3378 83.0395 46.1309C83.2155 44.924 83.1019 43.6926 82.7082 42.5383C82.3144 41.384 81.6518 40.3398 80.775 39.4921C79.8982 38.6443 78.8324 38.0172 77.6655 37.6625L67.1495 34.2442C64.4759 33.3574 62.0457 31.8599 60.0515 29.8706C58.0572 27.8813 56.5537 25.4548 55.6602 22.7835L52.2087 12.1631C51.678 10.6583 50.6925 9.35587 49.3886 8.43618C48.077 7.53175 46.5214 7.04742 44.9282 7.04742C43.335 7.04742 41.7795 7.53175 40.4679 8.43618C39.1438 9.37248 38.1474 10.7011 37.6193 12.2343L34.125 22.9876C33.2336 25.5896 31.7621 27.9548 29.8218 29.9041C27.8815 31.8535 25.5232 33.336 22.9254 34.2395L12.2907 37.6863C10.7775 38.2212 9.46856 39.2145 8.54613 40.528C7.6237 41.8414 7.13362 43.4098 7.14406 45.0148C7.15451 46.6198 7.66497 48.1816 8.60442 49.483C9.54386 50.7843 10.8656 51.7605 12.3857 52.2757L22.9064 55.694C26.3173 56.8387 29.3158 58.9621 31.5281 61.7994C32.791 63.4279 33.7642 65.2557 34.4051 67.2117L37.8614 77.8179C38.3931 79.3276 39.3806 80.6332 40.6862 81.5543M92.5847 119.508C93.551 120.191 94.7059 120.556 95.8891 120.553C97.0642 120.557 98.2118 120.197 99.1744 119.523C100.166 118.823 100.907 117.825 101.292 116.674L103.058 111.248C103.432 110.121 104.062 109.097 104.9 108.256C105.738 107.416 106.761 106.782 107.886 106.405L113.422 104.61C114.538 104.214 115.505 103.482 116.189 102.515C116.873 101.547 117.242 100.392 117.244 99.2076C117.244 97.9918 116.855 96.808 116.134 95.8291C115.413 94.8501 114.398 94.1275 113.237 93.7668L107.806 92.0102C106.678 91.6362 105.654 91.0047 104.813 90.1657C103.973 89.3268 103.339 88.3036 102.963 87.1771L101.159 81.6557C100.77 80.5287 100.037 79.5523 99.0638 78.8638C98.0905 78.1753 96.9258 77.8095 95.7336 77.8179C94.5415 77.8263 93.382 78.2084 92.4185 78.9106C91.455 79.6127 90.736 80.5993 90.3628 81.7316L88.5872 87.1724C88.2234 88.2843 87.6091 89.2979 86.7917 90.135C85.9744 90.9721 84.9758 91.6104 83.8729 92.0007L78.3371 93.7953C77.2182 94.1906 76.2491 94.9226 75.5631 95.8909C74.877 96.8592 74.5077 98.0162 74.5058 99.2029C74.507 100.4 74.8852 101.566 75.5865 102.536C76.2879 103.505 77.2768 104.23 78.4131 104.606L83.8444 106.372C84.9759 106.745 86.0038 107.379 86.845 108.223C87.6862 109.066 88.3172 110.096 88.6869 111.229L90.4863 116.75C90.8789 117.866 91.609 118.831 92.5752 119.513" fill="#9DD9FE"/>
<path d="M52.2135 78.3449L58.6241 81.1563L58.7583 80.8503L58.8627 80.5329L52.2135 78.3449ZM55.8691 67.2354L49.227 65.026L49.2234 65.0367L49.2199 65.0474L55.8691 67.2354ZM67.3394 55.7557L65.1767 49.0982L65.1505 49.1067L65.1244 49.1154L67.3394 55.7557ZM77.9646 52.3042L80.1272 58.9617L80.1962 58.9393L80.2647 58.9155L77.9646 52.3042ZM81.6962 49.4793L75.9921 45.4219L75.9746 45.4464L75.9573 45.4712L81.6962 49.4793ZM77.6655 37.6625L75.5015 44.3197L75.5655 44.3404L75.6298 44.36L77.6655 37.6625ZM67.1495 34.2442L64.9455 40.8882L64.9655 40.8949L64.9855 40.9014L67.1495 34.2442ZM55.6602 22.7835L49.003 24.947L49.0122 24.9755L49.0217 25.0039L55.6602 22.7835ZM52.2087 12.1631L58.866 9.99952L58.8391 9.91685L58.8102 9.83487L52.2087 12.1631ZM49.3886 8.43618L53.4234 2.71601L53.393 2.69454L53.3624 2.6734L49.3886 8.43618ZM44.9282 7.04742V0.0474243V7.04742ZM40.4679 8.43618L36.4941 2.6734L36.46 2.69693L36.4262 2.72086L40.4679 8.43618ZM37.6193 12.2343L31.0009 9.95454L30.9809 10.0126L30.9619 10.071L37.6193 12.2343ZM34.125 22.9876L40.7472 25.2563L40.7652 25.2037L40.7824 25.1509L34.125 22.9876ZM22.9254 34.2395L25.0836 40.8985L25.1545 40.8755L25.2248 40.851L22.9254 34.2395ZM12.2907 37.6863L10.1325 31.0273L10.0447 31.0557L9.95777 31.0865L12.2907 37.6863ZM12.3857 52.2757L10.1388 58.9053L10.1806 58.9195L10.2226 58.9331L12.3857 52.2757ZM22.9064 55.694L25.1335 49.0577L25.1015 49.047L25.0695 49.0366L22.9064 55.694ZM31.5281 61.7994L37.0596 57.5097L37.054 57.5025L37.0484 57.4953L31.5281 61.7994ZM34.4051 67.2117L41.0607 65.0429L41.0571 65.032L34.4051 67.2117ZM37.8614 77.8179L31.2059 79.9867L31.2315 80.0653L31.2589 80.1433L37.8614 77.8179ZM95.8891 120.553L95.9108 113.553L95.8898 113.553L95.8689 113.553L95.8891 120.553ZM99.1744 119.523L103.189 125.257L103.201 125.249L103.212 125.241L99.1744 119.523ZM101.292 116.674L107.931 118.892L107.94 118.866L107.948 118.84L101.292 116.674ZM103.058 111.248L96.4137 109.045L96.4076 109.063L96.4016 109.081L103.058 111.248ZM107.886 106.405L105.728 99.7462L105.696 99.7565L105.664 99.7672L107.886 106.405ZM113.422 104.61L115.581 111.269L115.673 111.239L115.765 111.207L113.422 104.61ZM117.244 99.2076L124.244 99.2204V99.2077L117.244 99.2076ZM113.237 93.7668L111.083 100.427L111.121 100.44L111.16 100.452L113.237 93.7668ZM107.806 92.0102L105.601 98.654L105.626 98.6624L105.651 98.6705L107.806 92.0102ZM102.963 87.1771L96.3092 89.3512L96.3163 89.373L96.3236 89.3948L102.963 87.1771ZM101.159 81.6557L107.813 79.4816L107.795 79.4262L107.776 79.3712L101.159 81.6557ZM90.3628 81.7316L83.7146 79.5405L83.7114 79.5502L83.7083 79.5599L90.3628 81.7316ZM88.5872 87.1724L95.2401 89.3496L95.2418 89.3441L88.5872 87.1724ZM83.8729 92.0007L86.0316 98.6595L86.1203 98.6308L86.2083 98.5996L83.8729 92.0007ZM78.3371 93.7953L76.1784 87.1365L76.0917 87.1646L76.0057 87.195L78.3371 93.7953ZM74.5058 99.2029L67.5058 99.1918L67.5058 99.2009L67.5058 99.2101L74.5058 99.2029ZM78.4131 104.606L76.2139 111.251L76.2312 111.257L76.2484 111.263L78.4131 104.606ZM83.8444 106.372L86.0363 99.7238L86.0226 99.7193L86.009 99.7149L83.8444 106.372ZM88.6869 111.229L95.3425 109.06L95.3413 109.056L88.6869 111.229ZM90.4863 116.75L83.8308 118.919L83.8562 118.997L83.8834 119.074L90.4863 116.75ZM40.6768 81.5543L36.639 87.2723C38.4233 88.5323 40.4655 89.3797 42.6177 89.753L43.8141 82.856L45.0105 75.959C44.904 75.9405 44.8029 75.8986 44.7145 75.8362L40.6768 81.5543ZM43.8141 82.856L42.6177 89.753C44.77 90.1264 46.9783 90.0163 49.0827 89.4309L47.2066 82.687L45.3305 75.9431C45.2263 75.972 45.117 75.9775 45.0105 75.959L43.8141 82.856ZM47.2066 82.687L49.0827 89.4309C51.1871 88.8455 53.135 87.7993 54.7853 86.3681L50.199 81.0798L45.6128 75.7915C45.5312 75.8623 45.4347 75.9141 45.3305 75.9431L47.2066 82.687ZM50.199 81.0798L54.7853 86.3681C56.4355 84.937 57.7468 83.1567 58.6241 81.1563L52.2135 78.3449L45.8029 75.5334C45.7594 75.6325 45.6945 75.7206 45.6128 75.7915L50.199 81.0798ZM52.2135 78.3449L58.8627 80.5329L62.5184 69.4235L55.8691 67.2354L49.2199 65.0474L45.5642 76.1569L52.2135 78.3449ZM55.8691 67.2354L62.5113 69.4449C63.0572 67.8037 63.9779 66.3123 65.2004 65.0888L60.2486 60.1411L55.2968 55.1934C52.5374 57.9551 50.4592 61.3216 49.227 65.026L55.8691 67.2354ZM60.2486 60.1411L65.2004 65.0888C66.4229 63.8652 67.9136 62.9433 69.5543 62.396L67.3394 55.7557L65.1244 49.1154C61.421 50.3507 58.0562 52.4316 55.2968 55.1934L60.2486 60.1411ZM67.3394 55.7557L69.502 62.4132L80.1272 58.9617L77.9646 52.3042L75.8019 45.6466L65.1767 49.0982L67.3394 55.7557ZM77.9646 52.3042L80.2647 58.9155C83.1665 57.9059 85.6758 56.0064 87.435 53.4875L81.6962 49.4793L75.9573 45.4712C75.8855 45.574 75.783 45.6516 75.6645 45.6929L77.9646 52.3042ZM81.6962 49.4793L87.4003 53.5368C88.7507 51.6384 89.6302 49.4461 89.9663 47.1408L83.0395 46.1309L76.1128 45.121C76.097 45.2294 76.0556 45.3326 75.9921 45.4219L81.6962 49.4793ZM83.0395 46.1309L89.9663 47.1408C90.3024 44.8355 90.0855 42.4833 89.3334 40.2784L82.7082 42.5383L76.083 44.7982C76.1184 44.9019 76.1286 45.0126 76.1128 45.121L83.0395 46.1309ZM82.7082 42.5383L89.3334 40.2784C88.5813 38.0735 87.3156 36.0791 85.6408 34.4597L80.775 39.4921L75.9093 44.5244C75.9881 44.6006 76.0476 44.6944 76.083 44.7982L82.7082 42.5383ZM80.775 39.4921L85.6408 34.4597C83.966 32.8404 81.93 31.6425 79.7011 30.965L77.6655 37.6625L75.6298 44.36C75.7347 44.3919 75.8305 44.4482 75.9093 44.5244L80.775 39.4921ZM77.6655 37.6625L79.8294 31.0054L69.3134 27.5871L67.1495 34.2442L64.9855 40.9014L75.5015 44.3197L77.6655 37.6625ZM67.1495 34.2442L69.3534 27.6002C67.7118 27.0557 66.2196 26.1362 64.9951 24.9147L60.0515 29.8706L55.1079 34.8265C57.8718 37.5836 61.2401 39.659 64.9455 40.8882L67.1495 34.2442ZM60.0515 29.8706L64.9951 24.9147C63.7705 23.6932 62.8474 22.2033 62.2987 20.5631L55.6602 22.7835L49.0217 25.0039C50.2601 28.7063 52.3439 32.0694 55.1079 34.8265L60.0515 29.8706ZM55.6602 22.7835L62.3175 20.6199L58.866 9.99952L52.2087 12.1631L45.5515 14.3266L49.003 24.947L55.6602 22.7835ZM52.2087 12.1631L58.8102 9.83487C57.7965 6.96061 55.914 4.47276 53.4234 2.71601L49.3886 8.43618L45.3538 14.1563C45.471 14.239 45.5595 14.356 45.6072 14.4912L52.2087 12.1631ZM49.3886 8.43618L53.3624 2.6734C50.8822 0.963233 47.9408 0.0474243 44.9282 0.0474243V7.04742V14.0474C45.1021 14.0474 45.2718 14.1003 45.4149 14.199L49.3886 8.43618ZM44.9282 7.04742V0.0474243C41.9157 0.0474243 38.9743 0.963238 36.4941 2.6734L40.4679 8.43618L44.4416 14.199C44.5847 14.1003 44.7544 14.0474 44.9282 14.0474V7.04742ZM40.4679 8.43618L36.4262 2.72086C33.9045 4.50411 32.0068 7.03445 31.0009 9.95454L37.6193 12.2343L44.2377 14.514C44.2881 14.3677 44.3832 14.2408 44.5095 14.1515L40.4679 8.43618ZM37.6193 12.2343L30.9619 10.071L27.4677 20.8244L34.125 22.9876L40.7824 25.1509L44.2766 14.3975L37.6193 12.2343ZM34.125 22.9876L27.5028 20.719C26.9555 22.3167 26.052 23.7689 24.8606 24.9659L29.8218 29.9041L34.7831 34.8423C37.4723 32.1406 39.5118 28.8625 40.7472 25.2563L34.125 22.9876ZM29.8218 29.9041L24.8606 24.9659C23.6691 26.1629 22.2211 27.0732 20.626 27.6279L22.9254 34.2395L25.2248 40.851C28.8253 39.5988 32.0938 37.5441 34.7831 34.8423L29.8218 29.9041ZM22.9254 34.2395L20.7672 27.5805L10.1325 31.0273L12.2907 37.6863L14.449 44.3452L25.0836 40.8985L22.9254 34.2395ZM12.2907 37.6863L9.95777 31.0865C7.07231 32.1064 4.57652 34.0005 2.81765 36.505L8.54613 40.528L14.2746 44.551C14.3606 44.4285 14.4826 44.3359 14.6237 44.2861L12.2907 37.6863ZM8.54613 40.528L2.81765 36.505C1.05878 39.0095 0.124294 42 0.144212 45.0603L7.14406 45.0148L14.1439 44.9692C14.1429 44.8196 14.1886 44.6734 14.2746 44.551L8.54613 40.528ZM7.14406 45.0148L0.144212 45.0603C0.16413 48.1207 1.13746 51.0988 2.92878 53.5802L8.60442 49.483L14.28 45.3858C14.1925 45.2644 14.1449 45.1188 14.1439 44.9692L7.14406 45.0148ZM8.60442 49.483L2.92878 53.5802C4.7201 56.0616 7.24032 57.923 10.1388 58.9053L12.3857 52.2757L14.6325 45.6461C14.4908 45.5981 14.3676 45.5071 14.28 45.3858L8.60442 49.483ZM12.3857 52.2757L10.2226 58.9331L20.7434 62.3514L22.9064 55.694L25.0695 49.0366L14.5487 45.6183L12.3857 52.2757ZM22.9064 55.694L20.6793 62.3302C22.7873 63.0377 24.6405 64.35 26.0077 66.1036L31.5281 61.7994L37.0484 57.4953C33.9912 53.5741 29.8473 50.6396 25.1335 49.0577L22.9064 55.694ZM31.5281 61.7994L25.9965 66.0892C26.7714 67.0884 27.3639 68.2034 27.7531 69.3914L34.4051 67.2117L41.0571 65.032C40.1646 62.308 38.8105 59.7673 37.0596 57.5097L31.5281 61.7994ZM34.4051 67.2117L27.7496 69.3806L31.2059 79.9867L37.8614 77.8179L44.5169 75.649L41.0607 65.0429L34.4051 67.2117ZM37.8614 77.8179L31.2589 80.1433C32.273 83.0225 34.1572 85.5149 36.6511 87.2742L40.6862 81.5543L44.7214 75.8343C44.6041 75.7516 44.5133 75.6328 44.4639 75.4925L37.8614 77.8179ZM92.5847 119.508L88.5449 125.225C90.6984 126.747 93.2723 127.56 95.9093 127.553L95.8891 120.553L95.8689 113.553C96.1395 113.552 96.4036 113.636 96.6245 113.792L92.5847 119.508ZM95.8891 120.553L95.8673 127.553C98.4864 127.561 101.044 126.759 103.189 125.257L99.1744 119.523L95.1595 113.789C95.3797 113.634 95.6421 113.552 95.9108 113.553L95.8891 120.553ZM99.1744 119.523L103.212 125.241C105.421 123.681 107.074 121.457 107.931 118.892L101.292 116.674L94.6526 114.456C94.7405 114.193 94.9102 113.965 95.1369 113.804L99.1744 119.523ZM101.292 116.674L107.948 118.84L109.714 113.414L103.058 111.248L96.4016 109.081L94.6355 114.508L101.292 116.674ZM103.058 111.248L109.702 113.451C109.734 113.356 109.787 113.269 109.857 113.199L104.9 108.256L99.9434 103.314C98.3378 104.924 97.1293 106.886 96.4137 109.045L103.058 111.248ZM104.9 108.256L109.857 113.199C109.928 113.128 110.014 113.075 110.109 113.043L107.886 106.405L105.664 99.7672C103.507 100.489 101.549 101.703 99.9434 103.314L104.9 108.256ZM107.886 106.405L110.045 113.064L115.581 111.269L113.422 104.61L111.263 97.9516L105.728 99.7462L107.886 106.405ZM113.422 104.61L115.765 111.207C118.242 110.327 120.386 108.703 121.904 106.557L116.189 102.515L110.474 98.4721C110.624 98.2608 110.835 98.1008 111.079 98.0141L113.422 104.61ZM116.189 102.515L121.904 106.557C123.422 104.411 124.239 101.849 124.244 99.2204L117.244 99.2076L110.244 99.1948C110.244 98.936 110.325 98.6835 110.474 98.4721L116.189 102.515ZM117.244 99.2076L124.244 99.2077C124.244 96.4982 123.377 93.8597 121.77 91.678L116.134 95.8291L110.498 99.9801C110.333 99.7562 110.244 99.4855 110.244 99.2075L117.244 99.2076ZM116.134 95.8291L121.77 91.678C120.164 89.4963 117.901 87.8858 115.314 87.082L113.237 93.7668L111.16 100.452C110.895 100.369 110.663 100.204 110.498 99.9801L116.134 95.8291ZM113.237 93.7668L115.391 87.1065L109.96 85.3499L107.806 92.0102L105.651 98.6705L111.083 100.427L113.237 93.7668ZM107.806 92.0102L110.01 85.3665C109.915 85.335 109.829 85.2818 109.758 85.2111L104.813 90.1657L99.8685 95.1203C101.479 96.7275 103.442 97.9374 105.601 98.654L107.806 92.0102ZM104.813 90.1657L109.758 85.2111C109.688 85.1405 109.634 85.0544 109.602 84.9595L102.963 87.1771L96.3236 89.3948C97.0444 91.5527 98.2581 93.5131 99.8685 95.1203L104.813 90.1657ZM102.963 87.1771L109.617 85.0031L107.813 79.4816L101.159 81.6557L94.5051 83.8297L96.3092 89.3512L102.963 87.1771ZM101.159 81.6557L107.776 79.3712C106.909 76.8597 105.275 74.6835 103.106 73.1491L99.0638 78.8638L95.0213 84.5785C94.7987 84.4211 94.6312 84.1978 94.5422 83.9401L101.159 81.6557ZM99.0638 78.8638L103.106 73.1491C100.937 71.6147 98.3413 70.7994 95.6844 70.8181L95.7336 77.8179L95.7829 84.8177C95.5102 84.8196 95.2438 84.736 95.0213 84.5785L99.0638 78.8638ZM95.7336 77.8179L95.6844 70.8181C93.0274 70.8368 90.4433 71.6885 88.296 73.2533L92.4185 78.9106L96.541 84.5678C96.3207 84.7284 96.0555 84.8158 95.7829 84.8177L95.7336 77.8179ZM92.4185 78.9106L88.296 73.2533C86.1487 74.818 84.5463 77.017 83.7146 79.5405L90.3628 81.7316L97.0111 83.9227C96.9257 84.1817 96.7613 84.4073 96.541 84.5678L92.4185 78.9106ZM90.3628 81.7316L83.7083 79.5599L81.9326 85.0007L88.5872 87.1724L95.2418 89.3441L97.0174 83.9033L90.3628 81.7316ZM88.5872 87.1724L81.9344 84.9952C81.9038 85.0888 81.8521 85.1742 81.7832 85.2447L86.7917 90.135L91.8002 95.0253C93.3661 93.4216 94.5429 91.4798 95.2401 89.3496L88.5872 87.1724ZM86.7917 90.135L81.7832 85.2447C81.7144 85.3152 81.6303 85.3689 81.5374 85.4018L83.8729 92.0007L86.2083 98.5996C88.3212 97.8518 90.2343 96.629 91.8002 95.0253L86.7917 90.135ZM83.8729 92.0007L81.7142 85.3419L76.1784 87.1365L78.3371 93.7953L80.4958 100.454L86.0316 98.6595L83.8729 92.0007ZM78.3371 93.7953L76.0057 87.195C73.5234 88.0718 71.3734 89.6959 69.8514 91.8441L75.5631 95.8909L81.2747 99.9377C81.1248 100.149 80.913 100.309 80.6685 100.396L78.3371 93.7953ZM75.5631 95.8909L69.8514 91.8441C68.3294 93.9923 67.51 96.5591 67.5058 99.1918L74.5058 99.2029L81.5058 99.214C81.5054 99.4732 81.4247 99.7261 81.2747 99.9377L75.5631 95.8909ZM74.5058 99.2029L67.5058 99.2101C67.5086 101.877 68.3513 104.476 69.9144 106.638L75.5865 102.536L81.2587 98.4335C81.419 98.6553 81.5055 98.9219 81.5058 99.1956L74.5058 99.2029ZM75.5865 102.536L69.9144 106.638C71.4775 108.799 73.6816 110.413 76.2139 111.251L78.4131 104.606L80.6123 97.9601C80.8721 98.0461 81.0983 98.2117 81.2587 98.4335L75.5865 102.536ZM78.4131 104.606L76.2484 111.263L81.6797 113.029L83.8444 106.372L86.009 99.7149L80.5777 97.9488L78.4131 104.606ZM83.8444 106.372L81.6525 113.02C81.7413 113.049 81.822 113.099 81.888 113.165L86.845 108.223L91.802 103.28C90.1856 101.659 88.2105 100.441 86.0363 99.7238L83.8444 106.372ZM86.845 108.223L81.888 113.165C81.954 113.231 82.0035 113.312 82.0326 113.401L88.6869 111.229L95.3413 109.056C94.6309 106.88 93.4184 104.901 91.802 103.28L86.845 108.223ZM88.6869 111.229L82.0314 113.397L83.8308 118.919L90.4863 116.75L97.1418 114.581L95.3425 109.06L88.6869 111.229ZM90.4863 116.75L83.8834 119.074C84.7585 121.56 86.3856 123.713 88.539 125.232L92.5752 119.513L96.6115 113.794C96.8324 113.95 96.9994 114.171 97.0892 114.426L90.4863 116.75Z" fill="#0E296D" mask="url(#path-1-outside-1_483_394)"/>
</svg>
