<svg width="125" height="128" viewBox="0 0 125 128" fill="none" xmlns="http://www.w3.org/2000/svg">
<mask id="path-1-outside-1_483_393" maskUnits="userSpaceOnUse" x="0.62207" y="0.475861" width="125" height="128" fill="black">
<rect fill="white" x="0.62207" y="0.475861" width="125" height="128"/>
<path d="M41.1549 81.9827C42.0913 82.6439 43.1629 83.0885 44.2923 83.2844C45.4217 83.4804 46.5805 83.4226 47.6848 83.1154C48.7891 82.8082 49.8113 82.2592 50.6772 81.5082C51.5432 80.7572 52.2313 79.823 52.6916 78.7733L56.3473 67.6639C57.2364 64.9911 58.7358 62.5621 60.7268 60.5695C62.7177 58.5769 65.1455 57.0754 67.8176 56.1841L78.4427 52.7326C79.9529 52.2072 81.2588 51.2187 82.1744 49.9078C82.8813 48.9139 83.3418 47.7662 83.5177 46.5593C83.6937 45.3525 83.5801 44.1211 83.1863 42.9667C82.7926 41.8124 82.13 40.7683 81.2532 39.9205C80.3764 39.0727 79.3105 38.4456 78.1436 38.091L67.6276 34.6727C64.9541 33.7858 62.5239 32.2884 60.5296 30.2991C58.5354 28.3097 57.0319 25.8833 56.1384 23.2119L52.6869 12.5915C52.1562 11.0868 51.1707 9.78431 49.8668 8.86461C48.5552 7.96019 46.9996 7.47586 45.4064 7.47586C43.8132 7.47586 42.2576 7.96019 40.946 8.86461C39.622 9.80091 38.6256 11.1295 38.0975 12.6627L34.6032 23.4161C33.7118 26.018 32.2403 28.3832 30.3 30.3326C28.3597 32.2819 26.0014 33.7644 23.4036 34.6679L12.7689 38.1147C11.2556 38.6496 9.94674 39.6429 9.0243 40.9564C8.10187 42.2699 7.61179 43.8382 7.62223 45.4432C7.63268 47.0482 8.14314 48.61 9.08259 49.9114C10.022 51.2128 11.3438 52.189 12.8639 52.7041L23.3846 56.1224C26.7955 57.2671 29.794 59.3905 32.0063 62.2279C33.2691 63.8563 34.2424 65.6841 34.8833 67.6401L38.3396 78.2463C38.8713 79.7561 39.8588 81.0617 41.1644 81.9827M93.0629 119.937C94.0292 120.62 95.1841 120.985 96.3672 120.981C97.5424 120.985 98.6899 120.625 99.6526 119.951C100.644 119.251 101.386 118.253 101.77 117.103L103.536 111.676C103.91 110.549 104.541 109.525 105.379 108.685C106.217 107.844 107.239 107.21 108.364 106.833L113.9 105.039C115.017 104.642 115.983 103.91 116.667 102.943C117.351 101.976 117.72 100.821 117.722 99.636C117.722 98.4203 117.333 97.2364 116.612 96.2575C115.891 95.2786 114.876 94.5559 113.715 94.1953L108.284 92.4387C107.157 92.0646 106.132 91.4331 105.292 90.5942C104.451 89.7552 103.817 88.732 103.441 87.6056L101.637 82.0841C101.248 80.9572 100.515 79.9807 99.542 79.2922C98.5687 78.6038 97.4039 78.2379 96.2118 78.2463C95.0196 78.2547 93.8602 78.6369 92.8967 79.339C91.9332 80.0411 91.2142 81.0278 90.841 82.16L89.0654 87.6008C88.7015 88.7128 88.0872 89.7263 87.2699 90.5634C86.4526 91.4005 85.4539 92.0388 84.351 92.4292L78.8153 94.2238C77.6964 94.619 76.7273 95.3511 76.0412 96.3193C75.3552 97.2876 74.9859 98.4446 74.984 99.6313C74.9852 100.828 75.3633 101.994 76.0647 102.964C76.7661 103.934 77.755 104.658 78.8913 105.034L84.3225 106.8C85.454 107.173 86.4819 107.807 87.3232 108.651C88.1644 109.495 88.7954 110.524 89.1651 111.657L90.9645 117.178C91.3571 118.294 92.0872 119.26 93.0534 119.942"/>
</mask>
<path d="M41.1549 81.9827C42.0913 82.6439 43.1629 83.0885 44.2923 83.2844C45.4217 83.4804 46.5805 83.4226 47.6848 83.1154C48.7891 82.8082 49.8113 82.2592 50.6772 81.5082C51.5432 80.7572 52.2313 79.823 52.6916 78.7733L56.3473 67.6639C57.2364 64.9911 58.7358 62.5621 60.7268 60.5695C62.7177 58.5769 65.1455 57.0754 67.8176 56.1841L78.4427 52.7326C79.9529 52.2072 81.2588 51.2187 82.1744 49.9078C82.8813 48.9139 83.3418 47.7662 83.5177 46.5593C83.6937 45.3525 83.5801 44.1211 83.1863 42.9667C82.7926 41.8124 82.13 40.7683 81.2532 39.9205C80.3764 39.0727 79.3105 38.4456 78.1436 38.091L67.6276 34.6727C64.9541 33.7858 62.5239 32.2884 60.5296 30.2991C58.5354 28.3097 57.0319 25.8833 56.1384 23.2119L52.6869 12.5915C52.1562 11.0868 51.1707 9.78431 49.8668 8.86461C48.5552 7.96019 46.9996 7.47586 45.4064 7.47586C43.8132 7.47586 42.2576 7.96019 40.946 8.86461C39.622 9.80091 38.6256 11.1295 38.0975 12.6627L34.6032 23.4161C33.7118 26.018 32.2403 28.3832 30.3 30.3326C28.3597 32.2819 26.0014 33.7644 23.4036 34.6679L12.7689 38.1147C11.2556 38.6496 9.94674 39.6429 9.0243 40.9564C8.10187 42.2699 7.61179 43.8382 7.62223 45.4432C7.63268 47.0482 8.14314 48.61 9.08259 49.9114C10.022 51.2128 11.3438 52.189 12.8639 52.7041L23.3846 56.1224C26.7955 57.2671 29.794 59.3905 32.0063 62.2279C33.2691 63.8563 34.2424 65.6841 34.8833 67.6401L38.3396 78.2463C38.8713 79.7561 39.8588 81.0617 41.1644 81.9827M93.0629 119.937C94.0292 120.62 95.1841 120.985 96.3672 120.981C97.5424 120.985 98.6899 120.625 99.6526 119.951C100.644 119.251 101.386 118.253 101.77 117.103L103.536 111.676C103.91 110.549 104.541 109.525 105.379 108.685C106.217 107.844 107.239 107.21 108.364 106.833L113.9 105.039C115.017 104.642 115.983 103.91 116.667 102.943C117.351 101.976 117.72 100.821 117.722 99.636C117.722 98.4203 117.333 97.2364 116.612 96.2575C115.891 95.2786 114.876 94.5559 113.715 94.1953L108.284 92.4387C107.157 92.0646 106.132 91.4331 105.292 90.5942C104.451 89.7552 103.817 88.732 103.441 87.6056L101.637 82.0841C101.248 80.9572 100.515 79.9807 99.542 79.2922C98.5687 78.6038 97.4039 78.2379 96.2118 78.2463C95.0196 78.2547 93.8602 78.6369 92.8967 79.339C91.9332 80.0411 91.2142 81.0278 90.841 82.16L89.0654 87.6008C88.7015 88.7128 88.0872 89.7263 87.2699 90.5634C86.4526 91.4005 85.4539 92.0388 84.351 92.4292L78.8153 94.2238C77.6964 94.619 76.7273 95.3511 76.0412 96.3193C75.3552 97.2876 74.9859 98.4446 74.984 99.6313C74.9852 100.828 75.3633 101.994 76.0647 102.964C76.7661 103.934 77.755 104.658 78.8913 105.034L84.3225 106.8C85.454 107.173 86.4819 107.807 87.3232 108.651C88.1644 109.495 88.7954 110.524 89.1651 111.657L90.9645 117.178C91.3571 118.294 92.0872 119.26 93.0534 119.942" fill="#CBF3FB"/>
<path d="M52.6916 78.7733L59.1022 81.5847L59.2364 81.2787L59.3409 80.9613L52.6916 78.7733ZM56.3473 67.6639L49.7051 65.4544L49.7016 65.4652L49.698 65.4759L56.3473 67.6639ZM67.8176 56.1841L65.6549 49.5266L65.6287 49.5351L65.6026 49.5438L67.8176 56.1841ZM78.4427 52.7326L80.6054 59.3902L80.6743 59.3678L80.7428 59.3439L78.4427 52.7326ZM82.1744 49.9078L76.4702 45.8503L76.4528 45.8749L76.4355 45.8996L82.1744 49.9078ZM78.1436 38.091L75.9797 44.7481L76.0437 44.7689L76.108 44.7884L78.1436 38.091ZM67.6276 34.6727L65.4237 41.3167L65.4437 41.3233L65.4637 41.3298L67.6276 34.6727ZM56.1384 23.2119L49.4811 25.3755L49.4904 25.4039L49.4999 25.4324L56.1384 23.2119ZM52.6869 12.5915L59.3442 10.428L59.3173 10.3453L59.2884 10.2633L52.6869 12.5915ZM49.8668 8.86461L53.9016 3.14445L53.8712 3.12298L53.8405 3.10184L49.8668 8.86461ZM45.4064 7.47586V0.475861V7.47586ZM40.946 8.86461L36.9723 3.10184L36.9382 3.12537L36.9043 3.1493L40.946 8.86461ZM38.0975 12.6627L31.4791 10.383L31.4591 10.441L31.4401 10.4994L38.0975 12.6627ZM34.6032 23.4161L41.2254 25.6847L41.2434 25.6322L41.2606 25.5793L34.6032 23.4161ZM23.4036 34.6679L25.5618 41.3269L25.6326 41.3039L25.703 41.2795L23.4036 34.6679ZM12.7689 38.1147L10.6107 31.4557L10.5229 31.4842L10.4359 31.5149L12.7689 38.1147ZM12.8639 52.7041L10.617 59.3337L10.6588 59.3479L10.7008 59.3616L12.8639 52.7041ZM23.3846 56.1224L25.6117 49.4861L25.5797 49.4754L25.5476 49.465L23.3846 56.1224ZM32.0063 62.2279L37.5378 57.9381L37.5322 57.9309L37.5266 57.9237L32.0063 62.2279ZM34.8833 67.6401L41.5389 65.4713L41.5353 65.4605L34.8833 67.6401ZM38.3396 78.2463L31.6841 80.4152L31.7097 80.4938L31.7371 80.5717L38.3396 78.2463ZM96.3672 120.981L96.389 113.981L96.368 113.981L96.3471 113.981L96.3672 120.981ZM99.6526 119.951L103.668 125.685L103.679 125.677L103.69 125.669L99.6526 119.951ZM101.77 117.103L108.409 119.321L108.418 119.295L108.426 119.269L101.77 117.103ZM103.536 111.676L96.8918 109.473L96.8858 109.491L96.8798 109.51L103.536 111.676ZM108.364 106.833L106.206 100.175L106.174 100.185L106.142 100.196L108.364 106.833ZM113.9 105.039L116.059 111.698L116.151 111.668L116.243 111.635L113.9 105.039ZM117.722 99.636L124.722 99.6488V99.6362L117.722 99.636ZM113.715 94.1953L111.561 100.856L111.6 100.868L111.638 100.88L113.715 94.1953ZM108.284 92.4387L106.079 99.0824L106.104 99.0908L106.13 99.099L108.284 92.4387ZM103.441 87.6056L96.7874 89.7797L96.7945 89.8015L96.8018 89.8232L103.441 87.6056ZM101.637 82.0841L108.291 79.91L108.273 79.8547L108.254 79.7997L101.637 82.0841ZM90.841 82.16L84.1928 79.969L84.1896 79.9786L84.1864 79.9883L90.841 82.16ZM89.0654 87.6008L95.7182 89.778L95.72 89.7726L89.0654 87.6008ZM84.351 92.4292L86.5097 99.088L86.5985 99.0592L86.6864 99.0281L84.351 92.4292ZM78.8153 94.2238L76.6566 87.5649L76.5699 87.593L76.4839 87.6234L78.8153 94.2238ZM74.984 99.6313L67.984 99.6202L67.984 99.6294L67.984 99.6385L74.984 99.6313ZM78.8913 105.034L76.6921 111.68L76.7093 111.685L76.7266 111.691L78.8913 105.034ZM84.3225 106.8L86.5144 100.152L86.5008 100.148L86.4872 100.143L84.3225 106.8ZM89.1651 111.657L95.8206 109.488L95.8195 109.485L89.1651 111.657ZM90.9645 117.178L84.309 119.347L84.3344 119.425L84.3616 119.503L90.9645 117.178ZM41.1549 81.9827L37.1171 87.7008C38.9015 88.9608 40.9437 89.8081 43.0959 90.1814L44.2923 83.2844L45.4887 76.3874C45.3821 76.369 45.281 76.327 45.1927 76.2646L41.1549 81.9827ZM44.2923 83.2844L43.0959 90.1814C45.2481 90.5548 47.4564 90.4447 49.5609 89.8593L47.6848 83.1154L45.8087 76.3715C45.7045 76.4005 45.5952 76.4059 45.4887 76.3874L44.2923 83.2844ZM47.6848 83.1154L49.5609 89.8593C51.6653 89.2739 53.6132 88.2277 55.2634 86.7966L50.6772 81.5082L46.091 76.2199C46.0093 76.2907 45.9129 76.3425 45.8087 76.3715L47.6848 83.1154ZM50.6772 81.5082L55.2634 86.7966C56.9137 85.3654 58.2249 83.5852 59.1022 81.5847L52.6916 78.7733L46.281 75.9619C46.2376 76.0609 46.1727 76.1491 46.091 76.2199L50.6772 81.5082ZM52.6916 78.7733L59.3409 80.9613L62.9966 69.8519L56.3473 67.6639L49.698 65.4759L46.0424 76.5853L52.6916 78.7733ZM56.3473 67.6639L62.9895 69.8733C63.5354 68.2321 64.4561 66.7407 65.6786 65.5172L60.7268 60.5695L55.775 55.6218C53.0156 58.3835 50.9374 61.75 49.7051 65.4544L56.3473 67.6639ZM60.7268 60.5695L65.6786 65.5172C66.9011 64.2937 68.3918 63.3718 70.0325 62.8245L67.8176 56.1841L65.6026 49.5438C61.8992 50.7791 58.5344 52.8601 55.775 55.6218L60.7268 60.5695ZM67.8176 56.1841L69.9802 62.8417L80.6054 59.3902L78.4427 52.7326L76.2801 46.0751L65.6549 49.5266L67.8176 56.1841ZM78.4427 52.7326L80.7428 59.3439C83.6447 58.3344 86.1539 56.4349 87.9132 53.916L82.1744 49.9078L76.4355 45.8996C76.3636 46.0025 76.2611 46.0801 76.1426 46.1213L78.4427 52.7326ZM82.1744 49.9078L87.8785 53.9652C89.2288 52.0669 90.1084 49.8746 90.4445 47.5693L83.5177 46.5593L76.591 45.5494C76.5751 45.6579 76.5338 45.761 76.4702 45.8503L82.1744 49.9078ZM83.5177 46.5593L90.4445 47.5693C90.7806 45.2639 90.5636 42.9118 89.8115 40.7069L83.1863 42.9667L76.5612 45.2266C76.5966 45.3304 76.6068 45.441 76.591 45.5494L83.5177 46.5593ZM83.1863 42.9667L89.8115 40.7069C89.0594 38.502 87.7937 36.5075 86.1189 34.8882L81.2532 39.9205L76.3874 44.9529C76.4662 45.029 76.5258 45.1229 76.5612 45.2266L83.1863 42.9667ZM81.2532 39.9205L86.1189 34.8882C84.4441 33.2688 82.4082 32.0709 80.1792 31.3935L78.1436 38.091L76.108 44.7884C76.2129 44.8203 76.3087 44.8767 76.3874 44.9529L81.2532 39.9205ZM78.1436 38.091L80.3076 31.4338L69.7916 28.0155L67.6276 34.6727L65.4637 41.3298L75.9797 44.7481L78.1436 38.091ZM67.6276 34.6727L69.8316 28.0287C68.19 27.4841 66.6978 26.5647 65.4732 25.3432L60.5296 30.2991L55.586 35.2549C58.35 38.0121 61.7182 40.0875 65.4237 41.3167L67.6276 34.6727ZM60.5296 30.2991L65.4732 25.3432C64.2487 24.1217 63.3255 22.6318 62.7769 20.9915L56.1384 23.2119L49.4999 25.4324C50.7383 29.1348 52.822 32.4978 55.586 35.2549L60.5296 30.2991ZM56.1384 23.2119L62.7957 21.0484L59.3442 10.428L52.6869 12.5915L46.0296 14.755L49.4811 25.3755L56.1384 23.2119ZM52.6869 12.5915L59.2884 10.2633C58.2747 7.38905 56.3922 4.9012 53.9016 3.14445L49.8668 8.86461L45.832 14.5848C45.9492 14.6674 46.0377 14.7845 46.0854 14.9197L52.6869 12.5915ZM49.8668 8.86461L53.8405 3.10184C51.3604 1.39167 48.419 0.475861 45.4064 0.475861V7.47586V14.4759C45.5802 14.4759 45.75 14.5287 45.8931 14.6274L49.8668 8.86461ZM45.4064 7.47586V0.475861C42.3938 0.475861 39.4524 1.39167 36.9723 3.10184L40.946 8.86461L44.9197 14.6274C45.0629 14.5287 45.2326 14.4759 45.4064 14.4759V7.47586ZM40.946 8.86461L36.9043 3.1493C34.3827 4.93254 32.4849 7.46289 31.4791 10.383L38.0975 12.6627L44.7158 14.9424C44.7662 14.7961 44.8613 14.6693 44.9877 14.5799L40.946 8.86461ZM38.0975 12.6627L31.4401 10.4994L27.9459 21.2528L34.6032 23.4161L41.2606 25.5793L44.7548 14.826L38.0975 12.6627ZM34.6032 23.4161L27.981 21.1474C27.4337 22.7451 26.5301 24.1974 25.3387 25.3943L30.3 30.3326L35.2612 35.2708C37.9505 32.569 39.99 29.291 41.2254 25.6847L34.6032 23.4161ZM30.3 30.3326L25.3387 25.3943C24.1473 26.5913 22.6993 27.5016 21.1042 28.0564L23.4036 34.6679L25.703 41.2795C29.3035 40.0273 32.572 37.9726 35.2612 35.2708L30.3 30.3326ZM23.4036 34.6679L21.2453 28.0089L10.6107 31.4557L12.7689 38.1147L14.9271 44.7737L25.5618 41.3269L23.4036 34.6679ZM12.7689 38.1147L10.4359 31.5149C7.55048 32.5349 5.0547 34.4289 3.29582 36.9334L9.0243 40.9564L14.7528 44.9794C14.8388 44.857 14.9608 44.7644 15.1019 44.7145L12.7689 38.1147ZM9.0243 40.9564L3.29582 36.9334C1.53695 39.4379 0.602464 42.4284 0.622382 45.4888L7.62223 45.4432L14.6221 45.3977C14.6211 45.248 14.6668 45.1018 14.7528 44.9794L9.0243 40.9564ZM7.62223 45.4432L0.622382 45.4888C0.6423 48.5491 1.61563 51.5272 3.40695 54.0086L9.08259 49.9114L14.7582 45.8142C14.6706 45.6929 14.6231 45.5473 14.6221 45.3977L7.62223 45.4432ZM9.08259 49.9114L3.40695 54.0086C5.19827 56.49 7.7185 58.3514 10.617 59.3337L12.8639 52.7041L15.1107 46.0745C14.969 46.0265 14.8458 45.9355 14.7582 45.8142L9.08259 49.9114ZM12.8639 52.7041L10.7008 59.3616L21.2215 62.7798L23.3846 56.1224L25.5476 49.465L15.0269 46.0467L12.8639 52.7041ZM23.3846 56.1224L21.1575 62.7587C23.2655 63.4661 25.1187 64.7784 26.4859 66.532L32.0063 62.2279L37.5266 57.9237C34.4693 54.0026 30.3255 51.0681 25.6117 49.4861L23.3846 56.1224ZM32.0063 62.2279L26.4747 66.5176C27.2496 67.5168 27.842 68.6318 28.2313 69.8198L34.8833 67.6401L41.5353 65.4605C40.6427 62.7364 39.2887 60.1958 37.5378 57.9381L32.0063 62.2279ZM34.8833 67.6401L28.2278 69.809L31.6841 80.4152L38.3396 78.2463L44.9951 76.0775L41.5388 65.4713L34.8833 67.6401ZM38.3396 78.2463L31.7371 80.5717C32.7512 83.4509 34.6353 85.9433 37.1293 87.7026L41.1644 81.9827L45.1996 76.2628C45.0823 76.18 44.9915 76.0612 44.942 75.9209L38.3396 78.2463ZM93.0629 119.937L89.0231 125.653C91.1766 127.175 93.7505 127.989 96.3874 127.981L96.3672 120.981L96.3471 113.981C96.6176 113.981 96.8818 114.064 97.1027 114.22L93.0629 119.937ZM96.3672 120.981L96.3455 127.981C98.9646 127.989 101.522 127.187 103.668 125.685L99.6526 119.951L95.6377 114.217C95.8578 114.063 96.1203 113.981 96.389 113.981L96.3672 120.981ZM99.6526 119.951L103.69 125.669C105.899 124.11 107.552 121.885 108.409 119.321L101.77 117.103L95.1308 114.884C95.2187 114.621 95.3884 114.393 95.615 114.233L99.6526 119.951ZM101.77 117.103L108.426 119.269L110.192 113.842L103.536 111.676L96.8798 109.51L95.1137 114.936L101.77 117.103ZM103.536 111.676L110.18 113.879C110.212 113.784 110.265 113.698 110.336 113.627L105.379 108.685L100.422 103.742C98.816 105.353 97.6075 107.315 96.8918 109.473L103.536 111.676ZM105.379 108.685L110.336 113.627C110.406 113.556 110.492 113.503 110.587 113.471L108.364 106.833L106.142 100.196C103.986 100.918 102.027 102.132 100.422 103.742L105.379 108.685ZM108.364 106.833L110.523 113.492L116.059 111.698L113.9 105.039L111.742 98.38L106.206 100.175L108.364 106.833ZM113.9 105.039L116.243 111.635C118.72 110.755 120.864 109.131 122.382 106.986L116.667 102.943L110.953 98.9006C111.102 98.6892 111.313 98.5292 111.557 98.4426L113.9 105.039ZM116.667 102.943L122.382 106.986C123.9 104.84 124.717 102.277 124.722 99.6488L117.722 99.636L110.722 99.6233C110.723 99.3644 110.803 99.112 110.953 98.9006L116.667 102.943ZM117.722 99.636L124.722 99.6362C124.722 96.9267 123.855 94.2882 122.249 92.1064L116.612 96.2575L110.976 100.409C110.811 100.185 110.722 99.9139 110.722 99.6359L117.722 99.636ZM116.612 96.2575L122.249 92.1064C120.642 89.9247 118.379 88.3142 115.792 87.5104L113.715 94.1953L111.638 100.88C111.373 100.798 111.141 100.632 110.976 100.409L116.612 96.2575ZM113.715 94.1953L115.869 87.535L110.438 85.7783L108.284 92.4387L106.13 99.099L111.561 100.856L113.715 94.1953ZM108.284 92.4387L110.488 85.7949C110.394 85.7634 110.307 85.7102 110.236 85.6396L105.292 90.5942L100.347 95.5488C101.957 97.156 103.92 98.3659 106.079 99.0824L108.284 92.4387ZM105.292 90.5942L110.236 85.6396C110.166 85.569 110.112 85.4828 110.081 85.3879L103.441 87.6056L96.8018 89.8232C97.5226 91.9812 98.7363 93.9415 100.347 95.5488L105.292 90.5942ZM103.441 87.6056L110.095 85.4315L108.291 79.91L101.637 82.0841L94.9833 84.2582L96.7874 89.7797L103.441 87.6056ZM101.637 82.0841L108.254 79.7997C107.387 77.2881 105.754 75.1119 103.584 73.5775L99.542 79.2922L95.4995 85.007C95.2769 84.8495 95.1093 84.6262 95.0203 84.3685L101.637 82.0841ZM99.542 79.2922L103.584 73.5775C101.415 72.0431 98.8195 71.2278 96.1625 71.2465L96.2118 78.2463L96.261 85.2461C95.9884 85.2481 95.722 85.1644 95.4995 85.007L99.542 79.2922ZM96.2118 78.2463L96.1625 71.2465C93.5056 71.2652 90.9215 72.1169 88.7741 73.6817L92.8967 79.339L97.0192 84.9963C96.7989 85.1568 96.5337 85.2442 96.261 85.2461L96.2118 78.2463ZM92.8967 79.339L88.7741 73.6817C86.6268 75.2465 85.0245 77.4455 84.1928 79.969L90.841 82.16L97.4893 84.3511C97.4039 84.6101 97.2395 84.8357 97.0192 84.9963L92.8967 79.339ZM90.841 82.16L84.1864 79.9883L82.4108 85.4291L89.0654 87.6008L95.72 89.7726L97.4956 84.3318L90.841 82.16ZM89.0654 87.6008L82.4126 85.4236C82.382 85.5173 82.3302 85.6026 82.2614 85.6731L87.2699 90.5634L92.2784 95.4537C93.8442 93.85 95.0211 91.9082 95.7182 89.778L89.0654 87.6008ZM87.2699 90.5634L82.2614 85.6731C82.1926 85.7436 82.1085 85.7974 82.0156 85.8302L84.351 92.4292L86.6864 99.0281C88.7994 98.2803 90.7125 97.0574 92.2784 95.4537L87.2699 90.5634ZM84.351 92.4292L82.1923 85.7703L76.6566 87.5649L78.8153 94.2238L80.974 100.883L86.5097 99.088L84.351 92.4292ZM78.8153 94.2238L76.4839 87.6234C74.0015 88.5002 71.8516 90.1243 70.3296 92.2725L76.0412 96.3193L81.7529 100.366C81.603 100.578 81.3912 100.738 81.1467 100.824L78.8153 94.2238ZM76.0412 96.3193L70.3296 92.2725C68.8075 94.4207 67.9882 96.9875 67.984 99.6202L74.984 99.6313L81.984 99.6424C81.9836 99.9017 81.9029 100.155 81.7529 100.366L76.0412 96.3193ZM74.984 99.6313L67.984 99.6385C67.9867 102.306 68.8295 104.905 70.3926 107.066L76.0647 102.964L81.7368 98.8619C81.8972 99.0837 81.9837 99.3503 81.984 99.6241L74.984 99.6313ZM76.0647 102.964L70.3926 107.066C71.9557 109.227 74.1598 110.842 76.6921 111.68L78.8913 105.034L81.0904 98.3885C81.3503 98.4745 81.5765 98.6402 81.7368 98.8619L76.0647 102.964ZM78.8913 105.034L76.7266 111.691L82.1579 113.457L84.3225 106.8L86.4872 100.143L81.0559 98.3772L78.8913 105.034ZM84.3225 106.8L82.1307 113.448C82.2195 113.477 82.3001 113.527 82.3662 113.593L87.3232 108.651L92.2802 103.708C90.6638 102.087 88.6887 100.869 86.5144 100.152L84.3225 106.8ZM87.3232 108.651L82.3662 113.593C82.4322 113.66 82.4817 113.74 82.5107 113.829L89.1651 111.657L95.8195 109.485C95.109 107.308 93.8966 105.33 92.2802 103.708L87.3232 108.651ZM89.1651 111.657L82.5096 113.826L84.309 119.347L90.9645 117.178L97.62 115.01L95.8206 109.488L89.1651 111.657ZM90.9645 117.178L84.3616 119.503C85.2367 121.989 86.8638 124.141 89.0172 125.661L93.0534 119.942L97.0896 114.222C97.3106 114.378 97.4776 114.599 97.5674 114.854L90.9645 117.178Z" fill="#0E296D" mask="url(#path-1-outside-1_483_393)"/>
</svg>
