<svg width="72" height="73" viewBox="0 0 72 73" fill="none" xmlns="http://www.w3.org/2000/svg">
<path d="M39.8195 4.55604C41.0334 4.74155 42.1782 5.24194 43.1383 6.00763C44.0984 6.77331 44.8405 7.7778 45.2914 8.92L50.4699 22.0443L63.6532 27.0818L63.6551 27.0821C64.8016 27.521 65.8133 28.2532 66.5888 29.2049C67.3643 30.1565 67.8765 31.2949 68.0749 32.5063C68.2733 33.7177 68.1513 34.96 67.72 36.1093C67.2886 37.2586 66.5633 38.2751 65.6168 39.0568L65.6157 39.0577L54.7328 48.0382L54.0189 62.1292C53.957 63.3561 53.5743 64.5455 52.909 65.5783C52.2437 66.6112 51.3186 67.4518 50.2269 68.0155C49.1352 68.5792 47.9145 68.847 46.6872 68.7915C45.46 68.736 44.2687 68.3593 43.2324 67.6995L43.2326 67.6985L31.3282 60.1229L17.7047 63.7976L17.7055 63.7987C16.5193 64.119 15.2692 64.1226 14.0813 63.809C12.8937 63.4953 11.8093 62.8753 10.9359 62.0114C10.0624 61.1474 9.43058 60.0688 9.10405 58.8844C8.77761 57.7 8.76753 56.4507 9.07485 55.2612L12.6008 41.6L4.89721 29.7821L4.89832 29.7813C4.22763 28.7528 3.83748 27.5667 3.76837 26.3407C3.6993 25.1142 3.95275 23.8907 4.50413 22.793C5.05557 21.6952 5.88545 20.7612 6.91063 20.0844C7.93587 19.4075 9.12097 19.0118 10.3472 18.936L24.4313 18.0653L33.294 7.08666L33.2949 7.0868C34.0664 6.13137 35.0746 5.39438 36.2196 4.95037C37.3644 4.50642 38.6057 4.37064 39.8195 4.55604Z" fill="#9DD9FE" stroke="#0E296D" stroke-width="7"/>
</svg>
