<svg width="86" height="90" viewBox="0 0 86 90" fill="none" xmlns="http://www.w3.org/2000/svg">
<path d="M33.3808 4.63333C34.7169 4.21292 36.1399 4.15041 37.5078 4.45149C38.7905 4.73388 39.983 5.32698 40.9809 6.17696L41.1778 6.35046L54.8598 18.8039L73.2889 17.1126L73.2908 17.112C74.6855 16.9848 76.0894 17.2262 77.3621 17.8107C78.6348 18.3952 79.732 19.3029 80.5444 20.4436C81.3567 21.5842 81.8566 22.9175 81.9929 24.3112C82.1292 25.7051 81.8974 27.1108 81.3213 28.3873L81.3207 28.3886L73.7029 45.2499L81.009 62.2489L81.109 62.4918C81.5872 63.7127 81.7589 65.0339 81.6072 66.339C81.4453 67.7312 80.9206 69.0566 80.0864 70.1828C79.2522 71.3089 78.1373 72.1971 76.8528 72.7576C75.5682 73.318 74.1585 73.5319 72.7654 73.3774L72.7651 73.3765L54.3731 71.3409L40.463 83.5432C39.4096 84.4675 38.1321 85.0993 36.7582 85.3756C35.3841 85.6519 33.9609 85.5625 32.6319 85.117C31.3031 84.6716 30.1139 83.8855 29.1839 82.837C28.254 81.7884 27.6154 80.514 27.3319 79.1414L23.5848 61.0214L7.68596 51.566L7.6866 51.5648C6.48236 50.8489 5.48655 49.8305 4.79915 48.6097C4.1115 47.3885 3.75609 46.008 3.76864 44.6065C3.78127 43.2052 4.16145 41.8318 4.87078 40.6232C5.58017 39.4146 6.59391 38.4131 7.81129 37.7189L23.8866 28.5514L27.9716 10.5065L28.0336 10.2515C28.3649 8.98326 29.0027 7.81419 29.8926 6.84805C30.8417 5.81765 32.0446 5.05387 33.3808 4.63333Z" fill="#CBF3FB" stroke="#0E296D" stroke-width="7"/>
</svg>
