<svg width="197" height="61" viewBox="0 0 197 61" fill="none" xmlns="http://www.w3.org/2000/svg">
<mask id="path-1-outside-1_909_1912" maskUnits="userSpaceOnUse" x="0.430176" y="0.651367" width="60" height="60" fill="black">
<rect fill="white" x="0.430176" y="0.651367" width="60" height="60"/>
<path d="M0.430176 0.651367H55.3398V55.561H0.430176V0.651367Z"/>
</mask>
<path d="M55.3398 55.561V60.561H60.3398V55.561H55.3398ZM55.3398 0.651367H50.3398V55.561H55.3398H60.3398V0.651367H55.3398ZM55.3398 55.561V50.561H0.430176V55.561V60.561H55.3398V55.561Z" fill="black" mask="url(#path-1-outside-1_909_1912)"/>
<mask id="path-3-inside-2_909_1912" fill="white">
<path d="M0.430176 0.651367H55.3398V55.561H0.430176V0.651367Z"/>
</mask>
<path d="M0.430176 0.651367H55.3398V55.561H0.430176V0.651367Z" fill="#E2F4FF"/>
<path d="M55.3398 55.561V60.561H60.3398V55.561H55.3398ZM55.3398 0.651367H50.3398V55.561H55.3398H60.3398V0.651367H55.3398ZM55.3398 55.561V50.561H0.430176V55.561V60.561H55.3398V55.561Z" fill="#9DD9FE" mask="url(#path-3-inside-2_909_1912)"/>
<mask id="path-5-inside-3_909_1912" fill="white">
<path d="M0.430176 0.651367H55.3398V55.561H0.430176V0.651367Z"/>
</mask>
<path d="M0.430176 0.651367V-4.34863H-4.56982V0.651367H0.430176ZM0.430176 0.651367V5.65137H55.3398V0.651367V-4.34863H0.430176V0.651367ZM0.430176 55.561H5.43018V0.651367H0.430176H-4.56982V55.561H0.430176Z" fill="white" mask="url(#path-5-inside-3_909_1912)"/>
<path d="M16.2563 41.5439H39.6235" stroke="black" stroke-width="5"/>
<mask id="path-8-outside-4_909_1912" maskUnits="userSpaceOnUse" x="60.4302" y="0.651367" width="60" height="60" fill="black">
<rect fill="white" x="60.4302" y="0.651367" width="60" height="60"/>
<path d="M60.4302 0.651367H115.34V55.561H60.4302V0.651367Z"/>
</mask>
<path d="M115.34 55.561V60.561H120.34V55.561H115.34ZM115.34 0.651367H110.34V55.561H115.34H120.34V0.651367H115.34ZM115.34 55.561V50.561H60.4302V55.561V60.561H115.34V55.561Z" fill="black" mask="url(#path-8-outside-4_909_1912)"/>
<mask id="path-10-inside-5_909_1912" fill="white">
<path d="M60.4302 0.651367H115.34V55.561H60.4302V0.651367Z"/>
</mask>
<path d="M60.4302 0.651367H115.34V55.561H60.4302V0.651367Z" fill="#E2F4FF"/>
<path d="M115.34 55.561V60.561H120.34V55.561H115.34ZM115.34 0.651367H110.34V55.561H115.34H120.34V0.651367H115.34ZM115.34 55.561V50.561H60.4302V55.561V60.561H115.34V55.561Z" fill="#9DD9FE" mask="url(#path-10-inside-5_909_1912)"/>
<mask id="path-12-inside-6_909_1912" fill="white">
<path d="M60.4302 0.651367H115.34V55.561H60.4302V0.651367Z"/>
</mask>
<path d="M60.4302 0.651367V-4.34863H55.4302V0.651367H60.4302ZM60.4302 0.651367V5.65137H115.34V0.651367V-4.34863H60.4302V0.651367ZM60.4302 55.561H65.4302V0.651367H60.4302H55.4302V55.561H60.4302Z" fill="white" mask="url(#path-12-inside-6_909_1912)"/>
<mask id="path-14-inside-7_909_1912" fill="white">
<path d="M71.7715 11.8984H104.108V44.2354H71.7715V11.8984Z"/>
</mask>
<path d="M71.7715 11.8984V1.89844H66.7715V11.8984H71.7715ZM104.108 11.8984H109.108V1.89844H104.108V11.8984ZM104.108 44.2354V49.2354H109.108V44.2354H104.108ZM71.7715 44.2354H66.7715V49.2354H71.7715V44.2354ZM71.7715 11.8984V21.8984H104.108V11.8984V1.89844H71.7715V11.8984ZM104.108 11.8984H99.1084V44.2354H104.108H109.108V11.8984H104.108ZM104.108 44.2354V39.2354H71.7715V44.2354V49.2354H104.108V44.2354ZM71.7715 44.2354H76.7715V11.8984H71.7715H66.7715V44.2354H71.7715Z" fill="black" mask="url(#path-14-inside-7_909_1912)"/>
<mask id="path-16-outside-8_909_1912" maskUnits="userSpaceOnUse" x="136.43" y="0.651367" width="60" height="60" fill="black">
<rect fill="white" x="136.43" y="0.651367" width="60" height="60"/>
<path d="M136.43 0.651367H191.34V55.561H136.43V0.651367Z"/>
</mask>
<path d="M191.34 55.561V60.561H196.34V55.561H191.34ZM191.34 0.651367H186.34V55.561H191.34H196.34V0.651367H191.34ZM191.34 55.561V50.561H136.43V55.561V60.561H191.34V55.561Z" fill="black" mask="url(#path-16-outside-8_909_1912)"/>
<mask id="path-18-inside-9_909_1912" fill="white">
<path d="M136.43 0.651367H191.34V55.561H136.43V0.651367Z"/>
</mask>
<path d="M136.43 0.651367H191.34V55.561H136.43V0.651367Z" fill="#E2F4FF"/>
<path d="M191.34 55.561V60.561H196.34V55.561H191.34ZM191.34 0.651367H186.34V55.561H191.34H196.34V0.651367H191.34ZM191.34 55.561V50.561H136.43V55.561V60.561H191.34V55.561Z" fill="#9DD9FE" mask="url(#path-18-inside-9_909_1912)"/>
<mask id="path-20-inside-10_909_1912" fill="white">
<path d="M136.43 0.651367H191.34V55.561H136.43V0.651367Z"/>
</mask>
<path d="M136.43 0.651367V-4.34863H131.43V0.651367H136.43ZM136.43 0.651367V5.65137H191.34V0.651367V-4.34863H136.43V0.651367ZM136.43 55.561H141.43V0.651367H136.43H131.43V55.561H136.43Z" fill="white" mask="url(#path-20-inside-10_909_1912)"/>
<path d="M148.233 12.3599H152.721V16.8476H148.233V12.3599ZM157.208 21.3354H152.721V16.8476H157.208V21.3354ZM161.696 25.8231H157.208V21.3354H161.696V25.8231ZM166.184 25.8231H161.696V30.3109H157.208V34.7987H152.721V39.2864H148.233V43.7742H152.721V39.2864H157.208V34.7987H161.696V30.3109H166.184V34.7987H170.672V39.2864H175.159V43.7742H179.647V39.2864H175.159V34.7987H170.672V30.3109H166.184V25.8231ZM170.672 21.3354V25.8231H166.184V21.3354H170.672ZM175.159 16.8476V21.3354H170.672V16.8476H175.159ZM175.159 16.8476V12.3599H179.647V16.8476H175.159Z" fill="black"/>
<rect x="157.159" y="21.2861" width="13.5502" height="13.5089" fill="black"/>
</svg>
