<svg width="434" height="336" viewBox="0 0 434 336" fill="none" xmlns="http://www.w3.org/2000/svg">
<path d="M165.844 13.2459H170.09V17.4918H174.336V21.7377H178.582V25.9836H182.828V30.2295H187.074V34.4754H191.32V38.7213H195.565V42.9672H199.811V47.2131H204.057V51.4589H208.303V55.7048H212.549V59.9507H216.795V64.1966H407.86V68.4425H416.352V72.6884H420.598V81.1802H424.844V310.459H420.598V318.95H416.352V323.196H407.86V327.442H21.4837V323.196H17.2378V318.95H12.9919V314.704H8.74536V21.7377H12.9919V17.4918H17.2378V13.2459H21.4837V9H165.844V13.2459Z" fill="url(#paint0_linear_957_496)"/>
<rect x="8.74536" y="101.022" width="416.098" height="226.42" fill="#9DD9FE"/>
<mask id="mask0_957_496" style="mask-type:alpha" maskUnits="userSpaceOnUse" x="0" y="72" width="434" height="100">
<rect y="72.5029" width="433.974" height="99.4608" fill="#92FEFE"/>
</mask>
<g mask="url(#mask0_957_496)">
<path d="M403.614 97.0854V100.674H416.353V104.264H420.598V107.853H424.844V115.031H429.09V313.743H424.844V320.921H420.598V324.51H416.353V328.099H407.86V331.688H21.4834V328.099H12.9922V324.51H8.74609V320.921H4.5V111.442H8.74609V104.264H17.2383V100.674H25.7295V97.0854H403.614Z" stroke="#0E296D" stroke-width="8.49179"/>
</g>
<path d="M170.09 4.75391V9H174.336V13.2461H178.582V17.4922H182.827V21.7373H187.073V25.9834H191.32V30.2295H195.566V34.4756H199.812V38.7217H204.057V42.9668H208.303V47.2129H212.549V51.459H216.795V55.7051H221.041V59.9512H412.106V64.1963H420.598V68.4424H424.844V76.9346H429.09V314.704H424.844V323.196H420.598V327.442H412.106V331.688H17.2375V327.442H12.9924V323.196H8.74634V318.95H4.49927V17.4922H8.74634V13.2461H12.9924V9H17.2375V4.75391H170.09Z" stroke="#0E296D" stroke-width="8.49179"/>
<mask id="path-6-outside-1_957_496" maskUnits="userSpaceOnUse" x="83.3999" y="164.541" width="296" height="107" fill="black">
<rect fill="white" x="83.3999" y="164.541" width="296" height="107"/>
<path d="M105.603 216.384C104.714 216.222 104.067 215.939 103.663 215.535C103.258 215.131 102.975 214.686 102.813 214.201C102.652 213.635 102.652 212.988 102.813 212.26C103.541 208.54 104.309 204.86 105.118 201.221C105.765 198.147 106.493 194.832 107.302 191.273C108.11 187.715 108.838 184.52 109.485 181.69C109.809 180.477 110.092 179.466 110.334 178.657C110.658 177.848 111.062 177.202 111.548 176.716C112.033 176.231 112.68 175.908 113.489 175.746C114.378 175.584 115.551 175.544 117.006 175.624H224.729C227.721 175.624 229.54 176.191 230.187 177.323C230.834 178.455 230.996 179.709 230.673 181.083C229.379 186.664 228.206 191.678 227.155 196.126C226.669 198.067 226.225 199.967 225.82 201.827C225.416 203.687 225.012 205.386 224.607 206.922C224.284 208.378 224.001 209.631 223.758 210.683C223.515 211.653 223.354 212.26 223.273 212.502C222.868 213.877 222.343 214.848 221.696 215.414C221.13 215.899 219.755 216.222 217.571 216.384C218.704 216.869 219.593 217.476 220.24 218.204C220.887 218.932 221.089 219.74 220.847 220.63L209.201 260.541H106.574C103.096 260.702 100.468 260.298 98.6889 259.327C96.9905 258.357 95.8179 257.265 95.1709 256.052C94.3622 254.596 94.0387 252.979 94.2004 251.2C95.4135 245.862 96.5053 241.01 97.4758 236.643C97.8801 234.783 98.2845 232.963 98.6889 231.184C99.0932 229.405 99.4167 227.787 99.6593 226.331C99.9828 224.876 100.266 223.703 100.508 222.814C100.751 221.843 100.872 221.237 100.872 220.994C101.034 219.781 101.56 218.81 102.449 218.083C103.339 217.274 104.39 216.708 105.603 216.384ZM184.818 226.574H137.993L134.475 241.738H181.421L184.818 226.574ZM193.552 194.427H145.514L142.481 207.771H189.913L193.552 194.427ZM219.892 260.541L225.109 243.315H300.684C302.625 243.315 304.404 242.789 306.021 241.738C307.639 240.605 309.014 239.271 310.146 237.735C310.712 237.007 311.238 235.996 311.723 234.702C312.289 233.327 312.774 231.952 313.179 230.577C313.583 229.041 313.987 227.383 314.392 225.604L230.567 225.482L245.246 175.624H364.856L359.397 193.821H280.911L276.301 208.62H354.909L344.598 243.315C344.112 245.256 343.223 247.237 341.929 249.259C340.635 251.281 339.098 253.141 337.319 254.839C335.621 256.456 333.761 257.831 331.739 258.964C329.798 260.015 327.897 260.541 326.037 260.541H219.892Z"/>
</mask>
<path d="M105.603 216.384C104.714 216.222 104.067 215.939 103.663 215.535C103.258 215.131 102.975 214.686 102.813 214.201C102.652 213.635 102.652 212.988 102.813 212.26C103.541 208.54 104.309 204.86 105.118 201.221C105.765 198.147 106.493 194.832 107.302 191.273C108.11 187.715 108.838 184.52 109.485 181.69C109.809 180.477 110.092 179.466 110.334 178.657C110.658 177.848 111.062 177.202 111.548 176.716C112.033 176.231 112.68 175.908 113.489 175.746C114.378 175.584 115.551 175.544 117.006 175.624H224.729C227.721 175.624 229.54 176.191 230.187 177.323C230.834 178.455 230.996 179.709 230.673 181.083C229.379 186.664 228.206 191.678 227.155 196.126C226.669 198.067 226.225 199.967 225.82 201.827C225.416 203.687 225.012 205.386 224.607 206.922C224.284 208.378 224.001 209.631 223.758 210.683C223.515 211.653 223.354 212.26 223.273 212.502C222.868 213.877 222.343 214.848 221.696 215.414C221.13 215.899 219.755 216.222 217.571 216.384C218.704 216.869 219.593 217.476 220.24 218.204C220.887 218.932 221.089 219.74 220.847 220.63L209.201 260.541H106.574C103.096 260.702 100.468 260.298 98.6889 259.327C96.9905 258.357 95.8179 257.265 95.1709 256.052C94.3622 254.596 94.0387 252.979 94.2004 251.2C95.4135 245.862 96.5053 241.01 97.4758 236.643C97.8801 234.783 98.2845 232.963 98.6889 231.184C99.0932 229.405 99.4167 227.787 99.6593 226.331C99.9828 224.876 100.266 223.703 100.508 222.814C100.751 221.843 100.872 221.237 100.872 220.994C101.034 219.781 101.56 218.81 102.449 218.083C103.339 217.274 104.39 216.708 105.603 216.384ZM184.818 226.574H137.993L134.475 241.738H181.421L184.818 226.574ZM193.552 194.427H145.514L142.481 207.771H189.913L193.552 194.427ZM219.892 260.541L225.109 243.315H300.684C302.625 243.315 304.404 242.789 306.021 241.738C307.639 240.605 309.014 239.271 310.146 237.735C310.712 237.007 311.238 235.996 311.723 234.702C312.289 233.327 312.774 231.952 313.179 230.577C313.583 229.041 313.987 227.383 314.392 225.604L230.567 225.482L245.246 175.624H364.856L359.397 193.821H280.911L276.301 208.62H354.909L344.598 243.315C344.112 245.256 343.223 247.237 341.929 249.259C340.635 251.281 339.098 253.141 337.319 254.839C335.621 256.456 333.761 257.831 331.739 258.964C329.798 260.015 327.897 260.541 326.037 260.541H219.892Z" fill="url(#paint1_linear_957_496)"/>
<path d="M105.603 216.384L108.222 226.205L107.422 206.384L105.603 216.384ZM103.663 215.535L96.4753 222.722L96.4753 222.722L103.663 215.535ZM102.813 214.201L93.0402 216.993L93.1008 217.205L93.1707 217.415L102.813 214.201ZM102.813 212.26L112.736 214.465L112.764 214.338L112.789 214.211L102.813 212.26ZM105.118 201.221L115.04 203.426L115.053 203.37L115.064 203.315L105.118 201.221ZM107.302 191.273L97.3902 189.021L97.3902 189.021L107.302 191.273ZM109.485 181.69L99.6642 179.071L99.6172 179.247L99.5766 179.425L109.485 181.69ZM110.334 178.657L100.897 174.882L100.729 175.303L100.599 175.737L110.334 178.657ZM113.489 175.746L111.67 165.745L111.583 165.761L111.495 165.779L113.489 175.746ZM117.006 175.624L116.443 185.773L116.724 185.789H117.006V175.624ZM230.673 181.083L220.779 178.755L220.775 178.771L220.771 178.787L230.673 181.083ZM227.155 196.126L237.015 198.591L237.031 198.527L237.046 198.464L227.155 196.126ZM224.607 206.922L214.778 204.335L214.728 204.525L214.685 204.717L224.607 206.922ZM223.758 210.683L233.619 213.148L233.641 213.058L233.662 212.968L223.758 210.683ZM223.273 212.502L213.63 209.288L213.573 209.46L213.522 209.634L223.273 212.502ZM221.696 215.414L228.311 223.131L228.35 223.097L228.389 223.063L221.696 215.414ZM217.571 216.384L216.82 206.248L213.567 225.727L217.571 216.384ZM220.847 220.63L230.604 223.477L230.629 223.391L230.653 223.304L220.847 220.63ZM209.201 260.541V270.705H216.823L218.958 263.388L209.201 260.541ZM106.574 260.541V250.376H106.338L106.102 250.387L106.574 260.541ZM98.6889 259.327L93.646 268.153L93.7333 268.202L93.8217 268.251L98.6889 259.327ZM95.1709 256.052L104.139 251.269L104.098 251.192L104.056 251.116L95.1709 256.052ZM94.2004 251.2L84.2889 248.947L84.1391 249.606L84.0779 250.28L94.2004 251.2ZM97.4758 236.643L107.398 238.848L107.403 238.825L107.408 238.802L97.4758 236.643ZM98.6889 231.184L88.7773 228.931L88.7773 228.931L98.6889 231.184ZM99.6593 226.331L89.7371 224.127L89.6781 224.392L89.6333 224.661L99.6593 226.331ZM100.508 222.814L110.315 225.488L110.343 225.384L110.369 225.279L100.508 222.814ZM100.872 220.994L90.7973 219.651L90.7081 220.319V220.994H100.872ZM102.449 218.083L108.886 225.949L109.091 225.782L109.287 225.603L102.449 218.083ZM184.818 226.574L194.736 228.796L197.511 216.41H184.818V226.574ZM137.993 226.574V216.41H129.917L128.092 224.277L137.993 226.574ZM134.475 241.738L124.574 239.441L121.683 251.902H134.475V241.738ZM181.421 241.738V251.902H189.561L191.34 243.959L181.421 241.738ZM193.552 194.427L203.358 197.102L206.86 184.263H193.552V194.427ZM145.514 194.427V184.263H137.401L135.602 192.175L145.514 194.427ZM142.481 207.771L132.57 205.519L129.748 217.936H142.481V207.771ZM189.913 207.771V217.936H197.676L199.719 210.446L189.913 207.771ZM105.603 216.384L107.422 206.384C107.548 206.407 107.957 206.49 108.525 206.739C109.099 206.99 109.973 207.471 110.85 208.348L103.663 215.535L96.4753 222.722C98.9667 225.214 101.952 226.051 103.785 226.385L105.603 216.384ZM103.663 215.535L110.85 208.348C111.428 208.926 112.062 209.806 112.456 210.986L102.813 214.201L93.1707 217.415C93.8877 219.566 95.0883 221.335 96.4753 222.722L103.663 215.535ZM102.813 214.201L112.587 211.408C112.998 212.847 112.845 213.971 112.736 214.465L102.813 212.26L92.8911 210.055C92.4579 212.004 92.3057 214.422 93.0402 216.993L102.813 214.201ZM102.813 212.26L112.789 214.211C113.5 210.574 114.251 206.979 115.04 203.426L105.118 201.221L95.196 199.016C94.3682 202.741 93.5823 206.505 92.8382 210.308L102.813 212.26ZM105.118 201.221L115.064 203.315C115.699 200.302 116.415 197.04 117.213 193.526L107.302 191.273L97.3902 189.021C96.5714 192.624 95.8317 195.993 95.172 199.127L105.118 201.221ZM107.302 191.273L117.213 193.526C118.021 189.971 118.748 186.78 119.394 183.955L109.485 181.69L99.5766 179.425C98.9285 182.261 98.1997 185.459 97.3902 189.021L107.302 191.273ZM109.485 181.69L119.306 184.309C119.615 183.153 119.868 182.251 120.07 181.578L110.334 178.657L100.599 175.737C100.316 176.681 100.003 177.8 99.6642 179.071L109.485 181.69ZM110.334 178.657L119.772 182.432C119.717 182.57 119.447 183.191 118.735 183.904L111.548 176.716L104.36 169.529C102.678 171.212 101.599 173.127 100.897 174.882L110.334 178.657ZM111.548 176.716L118.735 183.904C117.536 185.102 116.238 185.561 115.482 185.713L113.489 175.746L111.495 165.779C109.122 166.254 106.53 167.36 104.36 169.529L111.548 176.716ZM113.489 175.746L115.307 185.746C115.149 185.775 115.155 185.76 115.385 185.752C115.605 185.745 115.95 185.746 116.443 185.773L117.006 175.624L117.57 165.476C115.739 165.374 113.674 165.381 111.67 165.745L113.489 175.746ZM117.006 175.624V185.789H224.729V175.624V165.46H117.006V175.624ZM224.729 175.624V185.789C225.714 185.789 225.778 185.898 225.318 185.754C224.892 185.622 222.797 184.876 221.362 182.366L230.187 177.323L239.012 172.28C236.931 168.638 233.603 167.042 231.357 166.344C229.077 165.634 226.735 165.46 224.729 165.46V175.624ZM230.187 177.323L221.362 182.366C221.048 181.816 220.808 181.146 220.713 180.413C220.621 179.695 220.693 179.118 220.779 178.755L230.673 181.083L240.567 183.411C241.426 179.76 241.047 175.84 239.012 172.28L230.187 177.323ZM230.673 181.083L220.771 178.787C219.48 184.357 218.31 189.357 217.263 193.788L227.155 196.126L237.046 198.464C238.102 193.999 239.278 188.97 240.574 183.379L230.673 181.083ZM227.155 196.126L217.294 193.66C216.785 195.698 216.316 197.7 215.888 199.668L225.82 201.827L235.753 203.986C236.134 202.234 236.554 200.435 237.015 198.591L227.155 196.126ZM225.82 201.827L215.888 199.668C215.509 201.412 215.138 202.965 214.778 204.335L224.607 206.922L234.437 209.509C234.885 207.806 235.323 205.963 235.753 203.986L225.82 201.827ZM224.607 206.922L214.685 204.717C214.365 206.155 214.089 207.381 213.854 208.397L223.758 210.683L233.662 212.968C233.913 211.882 234.202 210.6 234.529 209.127L224.607 206.922ZM223.758 210.683L213.897 208.217C213.782 208.678 213.695 209.015 213.634 209.246C213.603 209.362 213.584 209.43 213.575 209.46C213.561 209.51 213.582 209.432 213.63 209.288L223.273 212.502L232.915 215.717C233.147 215.021 233.41 213.983 233.619 213.148L223.758 210.683ZM223.273 212.502L213.522 209.634C213.465 209.828 213.478 209.716 213.638 209.42C213.795 209.131 214.2 208.466 215.003 207.764L221.696 215.414L228.389 223.063C231.163 220.636 232.4 217.492 233.024 215.37L223.273 212.502ZM221.696 215.414L215.081 207.696C216.005 206.904 216.839 206.52 217.21 206.365C217.62 206.194 217.886 206.132 217.912 206.126C217.944 206.119 217.636 206.187 216.82 206.248L217.571 216.384L218.322 226.521C219.69 226.419 221.162 226.245 222.568 225.914C223.663 225.657 226.122 225.007 228.311 223.131L221.696 215.414ZM217.571 216.384L213.567 225.727C213.679 225.774 213.216 225.601 212.643 224.957L220.24 218.204L227.837 211.451C225.971 209.351 223.728 207.964 221.575 207.042L217.571 216.384ZM220.24 218.204L212.643 224.957C212.061 224.301 211.375 223.256 211.016 221.821C210.651 220.362 210.753 219.009 211.041 217.956L220.847 220.63L230.653 223.304C231.858 218.884 230.613 214.574 227.837 211.451L220.24 218.204ZM220.847 220.63L211.089 217.783L199.444 257.693L209.201 260.541L218.958 263.388L230.604 223.477L220.847 220.63ZM209.201 260.541V250.376H106.574V260.541V270.705H209.201V260.541ZM106.574 260.541L106.102 250.387C104.843 250.446 104.019 250.386 103.54 250.312C103.047 250.237 103.146 250.18 103.556 250.404L98.6889 259.327L93.8217 268.251C98.0252 270.543 102.883 270.887 107.046 270.694L106.574 260.541ZM98.6889 259.327L103.732 250.502C103.418 250.323 103.366 250.253 103.462 250.342C103.565 250.438 103.854 250.734 104.139 251.269L95.1709 256.052L86.2024 260.835C88.0555 264.31 90.9537 266.614 93.646 268.153L98.6889 259.327ZM95.1709 256.052L104.056 251.116C104.157 251.298 104.242 251.522 104.289 251.754C104.31 251.862 104.32 251.953 104.323 252.02C104.326 252.087 104.323 252.122 104.323 252.12L94.2004 251.2L84.0779 250.28C83.7456 253.935 84.4128 257.617 86.2857 260.988L95.1709 256.052ZM94.2004 251.2L104.112 253.452C105.328 248.102 106.423 243.234 107.398 238.848L97.4758 236.643L87.5535 234.438C86.5873 238.786 85.4992 243.622 84.2889 248.947L94.2004 251.2ZM97.4758 236.643L107.408 238.802C107.806 236.972 108.203 235.183 108.6 233.436L98.6889 231.184L88.7773 228.931C88.3656 230.743 87.9543 232.594 87.5435 234.484L97.4758 236.643ZM98.6889 231.184L108.6 233.436C109.039 231.507 109.404 229.692 109.685 228.002L99.6593 226.331L89.6333 224.661C89.4297 225.882 89.1477 227.302 88.7773 228.931L98.6889 231.184ZM99.6593 226.331L109.582 228.536C109.889 227.155 110.132 226.157 110.315 225.488L100.508 222.814L90.7024 220.139C90.3997 221.249 90.0771 222.596 89.7371 224.127L99.6593 226.331ZM100.508 222.814L110.369 225.279C110.509 224.72 110.643 224.151 110.748 223.624C110.8 223.367 111.037 222.244 111.037 220.994H100.872H90.7081C90.7081 220.626 90.7298 220.34 90.7442 220.182C90.7597 220.011 90.777 219.881 90.7875 219.807C90.8077 219.665 90.8226 219.597 90.8145 219.637C90.8086 219.667 90.7932 219.741 90.7637 219.868C90.7349 219.993 90.6967 220.152 90.6477 220.348L100.508 222.814ZM100.872 220.994L110.948 222.337C110.883 222.823 110.712 223.483 110.325 224.197C109.933 224.922 109.42 225.512 108.886 225.949L102.449 218.083L96.013 210.216C92.989 212.69 91.2758 216.062 90.7973 219.651L100.872 220.994ZM102.449 218.083L109.287 225.603C109.124 225.752 108.932 225.889 108.724 226.001C108.518 226.112 108.341 226.174 108.222 226.205L105.603 216.384L102.984 206.563C100.273 207.286 97.7576 208.611 95.6122 210.562L102.449 218.083ZM184.818 226.574V216.41H137.993V226.574V236.738H184.818V226.574ZM137.993 226.574L128.092 224.277L124.574 239.441L134.475 241.738L144.376 244.035L147.894 228.871L137.993 226.574ZM134.475 241.738V251.902H181.421V241.738V231.573H134.475V241.738ZM181.421 241.738L191.34 243.959L194.736 228.796L184.818 226.574L174.899 224.352L171.503 239.516L181.421 241.738ZM193.552 194.427V184.263H145.514V194.427V204.592H193.552V194.427ZM145.514 194.427L135.602 192.175L132.57 205.519L142.481 207.771L152.393 210.024L155.426 196.68L145.514 194.427ZM142.481 207.771V217.936H189.913V207.771V197.607H142.481V207.771ZM189.913 207.771L199.719 210.446L203.358 197.102L193.552 194.427L183.746 191.753L180.107 205.097L189.913 207.771ZM219.892 260.541L210.164 257.595L206.194 270.705H219.892V260.541ZM225.109 243.315V233.15H217.566L215.381 240.369L225.109 243.315ZM306.021 241.738L311.561 250.26L311.707 250.165L311.85 250.065L306.021 241.738ZM310.146 237.735L302.123 231.494L302.042 231.599L301.963 231.705L310.146 237.735ZM311.723 234.702L302.324 230.832L302.263 230.981L302.206 231.133L311.723 234.702ZM313.179 230.577L322.93 233.445L322.971 233.305L323.008 233.164L313.179 230.577ZM314.392 225.604L324.303 227.856L327.121 215.458L314.406 215.439L314.392 225.604ZM230.567 225.482L220.817 222.612L216.985 235.627L230.553 235.647L230.567 225.482ZM245.246 175.624V165.46H237.643L235.495 172.754L245.246 175.624ZM364.856 175.624L374.592 178.545L378.517 165.46H364.856V175.624ZM359.397 193.821V203.985H366.96L369.133 196.741L359.397 193.821ZM280.911 193.821V183.657H273.431L271.206 190.798L280.911 193.821ZM276.301 208.62L266.596 205.598L262.489 218.785H276.301V208.62ZM354.909 208.62L364.652 211.516L368.533 198.456H354.909V208.62ZM344.598 243.315L334.854 240.419L334.791 240.633L334.737 240.85L344.598 243.315ZM341.929 249.259L333.368 243.78L333.368 243.78L341.929 249.259ZM337.319 254.839L344.329 262.199L344.337 262.191L337.319 254.839ZM331.739 258.964L336.58 267.901L336.643 267.867L336.705 267.832L331.739 258.964ZM219.892 260.541L229.62 263.486L234.837 246.261L225.109 243.315L215.381 240.369L210.164 257.595L219.892 260.541ZM225.109 243.315V253.479H300.684V243.315V233.15H225.109V243.315ZM300.684 243.315V253.479C304.578 253.479 308.284 252.39 311.561 250.26L306.021 241.738L300.482 233.216C300.468 233.224 300.474 233.22 300.498 233.209C300.522 233.197 300.555 233.184 300.594 233.173C300.633 233.161 300.665 233.155 300.687 233.152C300.708 233.149 300.709 233.15 300.684 233.15V243.315ZM306.021 241.738L311.85 250.065C314.34 248.321 316.519 246.219 318.329 243.764L310.146 237.735L301.963 231.705C301.508 232.323 300.937 232.889 300.193 233.411L306.021 241.738ZM310.146 237.735L318.169 243.975C319.595 242.141 320.555 240.097 321.24 238.271L311.723 234.702L302.206 231.133C302.078 231.474 301.986 231.665 301.947 231.741C301.929 231.776 301.93 231.77 301.955 231.73C301.979 231.692 302.034 231.609 302.123 231.494L310.146 237.735ZM311.723 234.702L321.122 238.572C321.818 236.882 322.422 235.173 322.93 233.445L313.179 230.577L303.427 227.709C303.127 228.732 302.76 229.772 302.324 230.832L311.723 234.702ZM313.179 230.577L323.008 233.164C323.446 231.502 323.877 229.731 324.303 227.856L314.392 225.604L304.48 223.351C304.098 225.034 303.72 226.58 303.349 227.991L313.179 230.577ZM314.392 225.604L314.406 215.439L230.582 215.318L230.567 225.482L230.553 235.647L314.377 235.768L314.392 225.604ZM230.567 225.482L240.318 228.353L254.996 178.495L245.246 175.624L235.495 172.754L220.817 222.612L230.567 225.482ZM245.246 175.624V185.789H364.856V175.624V165.46H245.246V175.624ZM364.856 175.624L355.12 172.704L349.662 190.9L359.397 193.821L369.133 196.741L374.592 178.545L364.856 175.624ZM359.397 193.821V183.657H280.911V193.821V203.985H359.397V193.821ZM280.911 193.821L271.206 190.798L266.596 205.598L276.301 208.62L286.005 211.643L290.615 196.843L280.911 193.821ZM276.301 208.62V218.785H354.909V208.62V198.456H276.301V208.62ZM354.909 208.62L345.166 205.725L334.854 240.419L344.598 243.315L354.341 246.21L364.652 211.516L354.909 208.62ZM344.598 243.315L334.737 240.85C334.566 241.533 334.183 242.506 333.368 243.78L341.929 249.259L350.49 254.738C352.262 251.968 353.659 248.978 354.458 245.78L344.598 243.315ZM341.929 249.259L333.368 243.78C332.522 245.101 331.507 246.335 330.301 247.487L337.319 254.839L344.337 262.191C346.689 259.946 348.748 257.46 350.49 254.738L341.929 249.259ZM337.319 254.839L330.309 247.479C329.219 248.517 328.044 249.383 326.773 250.095L331.739 258.964L336.705 267.832C339.477 266.279 342.023 264.396 344.329 262.199L337.319 254.839ZM331.739 258.964L326.898 250.026C326.524 250.229 326.276 250.315 326.148 250.35C326.027 250.383 325.998 250.376 326.037 250.376V260.541V270.705C329.878 270.705 333.43 269.607 336.58 267.901L331.739 258.964ZM326.037 260.541V250.376H219.892V260.541V270.705H326.037V260.541Z" fill="#0E296D" mask="url(#path-6-outside-1_957_496)"/>
<mask id="path-8-outside-2_957_496" maskUnits="userSpaceOnUse" x="77.395" y="158.541" width="296" height="107" fill="black">
<rect fill="white" x="77.395" y="158.541" width="296" height="107"/>
<path d="M99.5986 210.385C98.709 210.223 98.062 209.94 97.6576 209.536C97.2533 209.131 96.9702 208.686 96.8085 208.201C96.6467 207.635 96.6467 206.988 96.8085 206.26C97.5363 202.54 98.3046 198.86 99.1133 195.221C99.7603 192.148 100.488 188.832 101.297 185.274C102.106 181.715 102.833 178.521 103.48 175.69C103.804 174.477 104.087 173.466 104.33 172.658C104.653 171.849 105.057 171.202 105.543 170.717C106.028 170.232 106.675 169.908 107.484 169.746C108.373 169.585 109.546 169.544 111.002 169.625H218.724C221.716 169.625 223.536 170.191 224.183 171.323C224.83 172.456 224.991 173.709 224.668 175.084C223.374 180.664 222.201 185.678 221.15 190.126C220.665 192.067 220.22 193.968 219.815 195.828C219.411 197.688 219.007 199.386 218.602 200.923C218.279 202.378 217.996 203.632 217.753 204.683C217.511 205.654 217.349 206.26 217.268 206.503C216.864 207.878 216.338 208.848 215.691 209.414C215.125 209.899 213.75 210.223 211.566 210.385C212.699 210.87 213.588 211.476 214.235 212.204C214.882 212.932 215.084 213.741 214.842 214.63L203.196 254.541H100.569C97.0915 254.703 94.4632 254.298 92.684 253.328C90.9857 252.357 89.813 251.266 89.166 250.053C88.3573 248.597 88.0338 246.979 88.1956 245.2C89.4086 239.863 90.5004 235.01 91.4709 230.643C91.8753 228.783 92.2796 226.964 92.684 225.184C93.0883 223.405 93.4118 221.788 93.6544 220.332C93.9779 218.876 94.261 217.704 94.5036 216.814C94.7462 215.844 94.8675 215.237 94.8675 214.994C95.0293 213.781 95.5549 212.811 96.4445 212.083C97.3341 211.274 98.3855 210.708 99.5986 210.385ZM178.813 220.575H131.988L128.47 235.738H175.416L178.813 220.575ZM187.547 188.428H139.509L136.476 201.772H183.908L187.547 188.428ZM213.887 254.541L219.104 237.315H294.679C296.62 237.315 298.399 236.79 300.017 235.738C301.634 234.606 303.009 233.272 304.141 231.735C304.707 231.007 305.233 229.996 305.718 228.702C306.284 227.327 306.769 225.953 307.174 224.578C307.578 223.041 307.982 221.383 308.387 219.604L224.563 219.483L239.241 169.625H358.851L353.392 187.821H274.906L270.296 202.621H348.904L338.593 237.315C338.107 239.256 337.218 241.238 335.924 243.259C334.63 245.281 333.093 247.141 331.314 248.84C329.616 250.457 327.756 251.832 325.734 252.964C323.793 254.015 321.893 254.541 320.032 254.541H213.887Z"/>
</mask>
<path d="M99.5986 210.385C98.709 210.223 98.062 209.94 97.6576 209.536C97.2533 209.131 96.9702 208.686 96.8085 208.201C96.6467 207.635 96.6467 206.988 96.8085 206.26C97.5363 202.54 98.3046 198.86 99.1133 195.221C99.7603 192.148 100.488 188.832 101.297 185.274C102.106 181.715 102.833 178.521 103.48 175.69C103.804 174.477 104.087 173.466 104.33 172.658C104.653 171.849 105.057 171.202 105.543 170.717C106.028 170.232 106.675 169.908 107.484 169.746C108.373 169.585 109.546 169.544 111.002 169.625H218.724C221.716 169.625 223.536 170.191 224.183 171.323C224.83 172.456 224.991 173.709 224.668 175.084C223.374 180.664 222.201 185.678 221.15 190.126C220.665 192.067 220.22 193.968 219.815 195.828C219.411 197.688 219.007 199.386 218.602 200.923C218.279 202.378 217.996 203.632 217.753 204.683C217.511 205.654 217.349 206.26 217.268 206.503C216.864 207.878 216.338 208.848 215.691 209.414C215.125 209.899 213.75 210.223 211.566 210.385C212.699 210.87 213.588 211.476 214.235 212.204C214.882 212.932 215.084 213.741 214.842 214.63L203.196 254.541H100.569C97.0915 254.703 94.4632 254.298 92.684 253.328C90.9857 252.357 89.813 251.266 89.166 250.053C88.3573 248.597 88.0338 246.979 88.1956 245.2C89.4086 239.863 90.5004 235.01 91.4709 230.643C91.8753 228.783 92.2796 226.964 92.684 225.184C93.0883 223.405 93.4118 221.788 93.6544 220.332C93.9779 218.876 94.261 217.704 94.5036 216.814C94.7462 215.844 94.8675 215.237 94.8675 214.994C95.0293 213.781 95.5549 212.811 96.4445 212.083C97.3341 211.274 98.3855 210.708 99.5986 210.385ZM178.813 220.575H131.988L128.47 235.738H175.416L178.813 220.575ZM187.547 188.428H139.509L136.476 201.772H183.908L187.547 188.428ZM213.887 254.541L219.104 237.315H294.679C296.62 237.315 298.399 236.79 300.017 235.738C301.634 234.606 303.009 233.272 304.141 231.735C304.707 231.007 305.233 229.996 305.718 228.702C306.284 227.327 306.769 225.953 307.174 224.578C307.578 223.041 307.982 221.383 308.387 219.604L224.563 219.483L239.241 169.625H358.851L353.392 187.821H274.906L270.296 202.621H348.904L338.593 237.315C338.107 239.256 337.218 241.238 335.924 243.259C334.63 245.281 333.093 247.141 331.314 248.84C329.616 250.457 327.756 251.832 325.734 252.964C323.793 254.015 321.893 254.541 320.032 254.541H213.887Z" fill="url(#paint2_linear_957_496)"/>
<path d="M99.5986 210.385L102.218 220.206L101.417 200.384L99.5986 210.385ZM97.6576 209.536L90.4704 216.723L90.4704 216.723L97.6576 209.536ZM96.8085 208.201L87.0353 210.993L87.0959 211.206L87.1658 211.415L96.8085 208.201ZM96.8085 206.26L106.731 208.465L106.759 208.339L106.784 208.212L96.8085 206.26ZM99.1133 195.221L109.036 197.426L109.048 197.371L109.06 197.315L99.1133 195.221ZM101.297 185.274L91.3854 183.021L91.3854 183.021L101.297 185.274ZM103.48 175.69L93.6594 173.071L93.6124 173.248L93.5717 173.426L103.48 175.69ZM104.33 172.658L94.8923 168.883L94.7241 169.303L94.594 169.737L104.33 172.658ZM107.484 169.746L105.665 159.746L105.578 159.762L105.49 159.779L107.484 169.746ZM111.002 169.625L110.438 179.774L110.719 179.789H111.002V169.625ZM224.668 175.084L214.774 172.756L214.77 172.772L214.766 172.788L224.668 175.084ZM221.15 190.126L231.011 192.591L231.026 192.528L231.042 192.464L221.15 190.126ZM218.602 200.923L208.773 198.336L208.723 198.526L208.68 198.718L218.602 200.923ZM217.753 204.683L227.614 207.148L227.636 207.059L227.657 206.969L217.753 204.683ZM217.268 206.503L207.625 203.288L207.568 203.461L207.517 203.635L217.268 206.503ZM215.691 209.414L222.306 217.132L222.345 217.098L222.384 217.064L215.691 209.414ZM211.566 210.385L210.816 200.248L207.563 219.727L211.566 210.385ZM214.842 214.63L224.599 217.478L224.624 217.391L224.648 217.305L214.842 214.63ZM203.196 254.541V264.705H210.818L212.954 257.388L203.196 254.541ZM100.569 254.541V244.377H100.333L100.097 244.388L100.569 254.541ZM92.684 253.328L87.6411 262.153L87.7284 262.203L87.8168 262.251L92.684 253.328ZM89.166 250.053L98.1345 245.269L98.0935 245.193L98.0512 245.116L89.166 250.053ZM88.1956 245.2L78.284 242.948L78.1342 243.607L78.073 244.28L88.1956 245.2ZM91.4709 230.643L101.393 232.848L101.398 232.825L101.403 232.802L91.4709 230.643ZM92.684 225.184L82.7725 222.932L82.7725 222.932L92.684 225.184ZM93.6544 220.332L83.7322 218.127L83.6732 218.393L83.6285 218.661L93.6544 220.332ZM94.5036 216.814L104.31 219.488L104.338 219.384L104.364 219.279L94.5036 216.814ZM94.8675 214.994L84.7924 213.651L84.7033 214.32V214.994H94.8675ZM96.4445 212.083L102.881 219.95L103.086 219.782L103.282 219.604L96.4445 212.083ZM178.813 220.575L188.732 222.796L191.506 210.41H178.813V220.575ZM131.988 220.575V210.41H123.912L122.087 218.277L131.988 220.575ZM128.47 235.738L118.569 233.441L115.678 245.902H128.47V235.738ZM175.416 235.738V245.902H183.556L185.335 237.96L175.416 235.738ZM187.547 188.428L197.353 191.102L200.855 178.264H187.547V188.428ZM139.509 188.428V178.264H131.396L129.598 186.175L139.509 188.428ZM136.476 201.772L126.565 199.519L123.743 211.936H136.476V201.772ZM183.908 201.772V211.936H191.671L193.714 204.446L183.908 201.772ZM99.5986 210.385L101.417 200.384C101.543 200.407 101.953 200.491 102.52 200.739C103.094 200.99 103.968 201.471 104.845 202.348L97.6576 209.536L90.4704 216.723C92.9618 219.214 95.9469 220.052 97.7803 220.385L99.5986 210.385ZM97.6576 209.536L104.845 202.348C105.423 202.927 106.058 203.806 106.451 204.987L96.8085 208.201L87.1658 211.415C87.8828 213.566 89.0834 215.336 90.4704 216.723L97.6576 209.536ZM96.8085 208.201L106.582 205.409C106.993 206.847 106.84 207.972 106.731 208.465L96.8085 206.26L86.8862 204.055C86.4531 206.004 86.3008 208.423 87.0353 210.993L96.8085 208.201ZM96.8085 206.26L106.784 208.212C107.495 204.575 108.246 200.98 109.036 197.426L99.1133 195.221L89.1911 193.016C88.3633 196.741 87.5775 200.505 86.8333 204.309L96.8085 206.26ZM99.1133 195.221L109.06 197.315C109.694 194.303 110.41 191.04 111.208 187.526L101.297 185.274L91.3854 183.021C90.5665 186.624 89.8268 189.993 89.1671 193.127L99.1133 195.221ZM101.297 185.274L111.208 187.526C112.016 183.971 112.743 180.781 113.389 177.955L103.48 175.69L93.5717 173.426C92.9236 176.261 92.1948 179.46 91.3854 183.021L101.297 185.274ZM103.48 175.69L113.302 178.309C113.61 177.154 113.863 176.252 114.065 175.578L104.33 172.658L94.594 169.737C94.3107 170.681 93.9982 171.801 93.6594 173.071L103.48 175.69ZM104.33 172.658L113.767 176.433C113.712 176.571 113.442 177.192 112.73 177.904L105.543 170.717L98.3555 163.53C96.6728 165.212 95.5945 167.127 94.8923 168.883L104.33 172.658ZM105.543 170.717L112.73 177.904C111.531 179.103 110.233 179.562 109.477 179.713L107.484 169.746L105.49 159.779C103.117 160.254 100.525 161.36 98.3555 163.53L105.543 170.717ZM107.484 169.746L109.302 179.747C109.144 179.775 109.15 179.761 109.381 179.753C109.6 179.745 109.945 179.746 110.438 179.774L111.002 169.625L111.565 159.476C109.734 159.375 107.669 159.382 105.665 159.746L107.484 169.746ZM111.002 169.625V179.789H218.724V169.625V159.461H111.002V169.625ZM218.724 169.625V179.789C219.709 179.789 219.773 179.898 219.313 179.755C218.887 179.622 216.792 178.876 215.357 176.366L224.183 171.323L233.008 166.28C230.926 162.638 227.598 161.043 225.352 160.344C223.072 159.635 220.731 159.461 218.724 159.461V169.625ZM224.183 171.323L215.357 176.366C215.043 175.816 214.803 175.146 214.708 174.413C214.616 173.695 214.688 173.118 214.774 172.756L224.668 175.084L234.562 177.412C235.421 173.76 235.042 169.84 233.008 166.28L224.183 171.323ZM224.668 175.084L214.766 172.788C213.475 178.357 212.305 183.357 211.258 187.788L221.15 190.126L231.042 192.464C232.097 187.999 233.273 182.971 234.569 177.38L224.668 175.084ZM221.15 190.126L211.289 187.661C210.78 189.698 210.311 191.701 209.883 193.668L219.815 195.828L229.748 197.987C230.129 196.234 230.549 194.436 231.011 192.591L221.15 190.126ZM219.815 195.828L209.883 193.668C209.504 195.412 209.133 196.965 208.773 198.336L218.602 200.923L228.432 203.509C228.88 201.807 229.318 199.963 229.748 197.987L219.815 195.828ZM218.602 200.923L208.68 198.718C208.361 200.156 208.084 201.381 207.849 202.398L217.753 204.683L227.657 206.969C227.908 205.883 228.197 204.601 228.525 203.128L218.602 200.923ZM217.753 204.683L207.892 202.218C207.777 202.678 207.691 203.016 207.629 203.247C207.598 203.363 207.579 203.43 207.571 203.46C207.556 203.51 207.577 203.432 207.625 203.288L217.268 206.503L226.911 209.717C227.142 209.022 227.405 207.983 227.614 207.148L217.753 204.683ZM217.268 206.503L207.517 203.635C207.46 203.829 207.473 203.716 207.633 203.421C207.79 203.131 208.195 202.467 208.998 201.765L215.691 209.414L222.384 217.064C225.158 214.637 226.395 211.493 227.019 209.371L217.268 206.503ZM215.691 209.414L209.076 201.697C210 200.905 210.834 200.52 211.205 200.365C211.615 200.195 211.881 200.133 211.907 200.127C211.939 200.119 211.631 200.188 210.816 200.248L211.566 210.385L212.317 220.521C213.685 220.42 215.157 220.246 216.563 219.915C217.658 219.657 220.117 219.008 222.306 217.132L215.691 209.414ZM211.566 210.385L207.563 219.727C207.674 219.775 207.211 219.601 206.638 218.957L214.235 212.204L221.832 205.452C219.966 203.352 217.723 201.965 215.57 201.042L211.566 210.385ZM214.235 212.204L206.638 218.957C206.056 218.302 205.37 217.256 205.011 215.822C204.646 214.362 204.748 213.009 205.036 211.956L214.842 214.63L224.648 217.305C225.853 212.885 224.608 208.574 221.832 205.452L214.235 212.204ZM214.842 214.63L205.084 211.783L193.439 251.694L203.196 254.541L212.954 257.388L224.599 217.478L214.842 214.63ZM203.196 254.541V244.377H100.569V254.541V264.705H203.196V254.541ZM100.569 254.541L100.097 244.388C98.8384 244.446 98.014 244.387 97.5352 244.313C97.0418 244.237 97.1408 244.181 97.5512 244.405L92.684 253.328L87.8168 262.251C92.0203 264.544 96.8779 264.888 101.041 264.694L100.569 254.541ZM92.684 253.328L97.7269 244.503C97.4135 244.324 97.3616 244.253 97.4569 244.342C97.5603 244.438 97.8495 244.735 98.1345 245.269L89.166 250.053L80.1975 254.836C82.0506 258.31 84.9488 260.615 87.6411 262.153L92.684 253.328ZM89.166 250.053L98.0512 245.116C98.1525 245.299 98.2373 245.522 98.2838 245.754C98.3055 245.863 98.3148 245.954 98.318 246.021C98.3212 246.087 98.3179 246.122 98.3181 246.12L88.1956 245.2L78.073 244.28C77.7407 247.936 78.4079 251.618 80.2808 254.989L89.166 250.053ZM88.1956 245.2L98.1071 247.453C99.323 242.103 100.418 237.234 101.393 232.848L91.4709 230.643L81.5487 228.438C80.5824 232.786 79.4943 237.623 78.284 242.948L88.1956 245.2ZM91.4709 230.643L101.403 232.802C101.801 230.972 102.199 229.184 102.595 227.437L92.684 225.184L82.7725 222.932C82.3607 224.743 81.9494 226.594 81.5386 228.484L91.4709 230.643ZM92.684 225.184L102.595 227.437C103.034 225.508 103.399 223.693 103.68 222.003L93.6544 220.332L83.6285 218.661C83.4248 219.883 83.1428 221.302 82.7725 222.932L92.684 225.184ZM93.6544 220.332L103.577 222.537C103.884 221.156 104.127 220.158 104.31 219.488L94.5036 216.814L84.6975 214.14C84.3948 215.25 84.0722 216.597 83.7322 218.127L93.6544 220.332ZM94.5036 216.814L104.364 219.279C104.504 218.72 104.638 218.152 104.743 217.625C104.795 217.368 105.032 216.245 105.032 214.994H94.8675H84.7033C84.7033 214.627 84.7249 214.341 84.7393 214.182C84.7549 214.011 84.7721 213.881 84.7827 213.807C84.8029 213.666 84.8177 213.598 84.8097 213.638C84.8037 213.667 84.7883 213.741 84.7588 213.869C84.73 213.994 84.6918 214.153 84.6428 214.349L94.5036 216.814ZM94.8675 214.994L104.943 216.338C104.878 216.824 104.707 217.484 104.32 218.198C103.928 218.922 103.415 219.512 102.881 219.95L96.4445 212.083L90.0081 204.216C86.9841 206.69 85.2709 210.062 84.7924 213.651L94.8675 214.994ZM96.4445 212.083L103.282 219.604C103.119 219.752 102.927 219.889 102.719 220.001C102.513 220.112 102.337 220.174 102.218 220.206L99.5986 210.385L96.9796 200.564C94.2686 201.287 91.7528 202.612 89.6073 204.562L96.4445 212.083ZM178.813 220.575V210.41H131.988V220.575V230.739H178.813V220.575ZM131.988 220.575L122.087 218.277L118.569 233.441L128.47 235.738L138.371 238.035L141.889 222.872L131.988 220.575ZM128.47 235.738V245.902H175.416V235.738V225.574H128.47V235.738ZM175.416 235.738L185.335 237.96L188.732 222.796L178.813 220.575L168.895 218.353L165.498 233.516L175.416 235.738ZM187.547 188.428V178.264H139.509V188.428V198.592H187.547V188.428ZM139.509 188.428L129.598 186.175L126.565 199.519L136.476 201.772L146.388 204.024L149.421 190.68L139.509 188.428ZM136.476 201.772V211.936H183.908V201.772V191.607H136.476V201.772ZM183.908 201.772L193.714 204.446L197.353 191.102L187.547 188.428L177.741 185.753L174.102 199.097L183.908 201.772ZM213.887 254.541L204.159 251.595L200.189 264.705H213.887V254.541ZM219.104 237.315V227.151H211.561L209.376 234.369L219.104 237.315ZM300.017 235.738L305.556 244.26L305.702 244.165L305.845 244.065L300.017 235.738ZM304.141 231.735L296.118 225.495L296.037 225.599L295.958 225.706L304.141 231.735ZM305.718 228.702L296.319 224.832L296.258 224.982L296.201 225.133L305.718 228.702ZM307.174 224.578L316.925 227.446L316.966 227.306L317.003 227.165L307.174 224.578ZM308.387 219.604L318.298 221.857L321.116 209.458L308.402 209.44L308.387 219.604ZM224.563 219.483L214.812 216.612L210.98 229.627L224.548 229.647L224.563 219.483ZM239.241 169.625V159.461H231.638L229.49 166.754L239.241 169.625ZM358.851 169.625L368.587 172.546L372.512 159.461H358.851V169.625ZM353.392 187.821V197.986H360.955L363.128 190.742L353.392 187.821ZM274.906 187.821V177.657H267.426L265.201 184.799L274.906 187.821ZM270.296 202.621L260.591 199.598L256.484 212.785H270.296V202.621ZM348.904 202.621L358.647 205.517L362.528 192.457H348.904V202.621ZM338.593 237.315L328.85 234.42L328.786 234.633L328.732 234.85L338.593 237.315ZM335.924 243.259L327.363 237.78L327.363 237.78L335.924 243.259ZM331.314 248.84L338.324 256.2L338.332 256.192L331.314 248.84ZM325.734 252.964L330.575 261.901L330.638 261.867L330.7 261.832L325.734 252.964ZM213.887 254.541L223.615 257.487L228.832 240.261L219.104 237.315L209.376 234.369L204.159 251.595L213.887 254.541ZM219.104 237.315V247.479H294.679V237.315V227.151H219.104V237.315ZM294.679 237.315V247.479C298.573 247.479 302.279 246.39 305.556 244.26L300.017 235.738L294.477 227.216C294.463 227.225 294.469 227.22 294.493 227.209C294.517 227.198 294.55 227.185 294.589 227.173C294.628 227.162 294.66 227.155 294.682 227.152C294.704 227.149 294.704 227.151 294.679 227.151V237.315ZM300.017 235.738L305.845 244.065C308.336 242.322 310.514 240.22 312.324 237.764L304.141 231.735L295.958 225.706C295.503 226.323 294.932 226.89 294.188 227.411L300.017 235.738ZM304.141 231.735L312.164 237.975C313.59 236.142 314.55 234.097 315.235 232.271L305.718 228.702L296.201 225.133C296.073 225.475 295.981 225.666 295.942 225.742C295.924 225.776 295.925 225.77 295.95 225.731C295.974 225.692 296.029 225.609 296.118 225.495L304.141 231.735ZM305.718 228.702L315.117 232.572C315.813 230.882 316.417 229.173 316.925 227.446L307.174 224.578L297.422 221.71C297.122 222.732 296.756 223.773 296.319 224.832L305.718 228.702ZM307.174 224.578L317.003 227.165C317.441 225.502 317.872 223.732 318.298 221.857L308.387 219.604L298.475 217.352C298.093 219.035 297.715 220.58 297.344 221.991L307.174 224.578ZM308.387 219.604L308.402 209.44L224.577 209.319L224.563 219.483L224.548 229.647L308.372 229.768L308.387 219.604ZM224.563 219.483L234.313 222.353L248.991 172.496L239.241 169.625L229.49 166.754L214.812 216.612L224.563 219.483ZM239.241 169.625V179.789H358.851V169.625V159.461H239.241V169.625ZM358.851 169.625L349.116 166.704L343.657 184.901L353.392 187.821L363.128 190.742L368.587 172.546L358.851 169.625ZM353.392 187.821V177.657H274.906V187.821V197.986H353.392V187.821ZM274.906 187.821L265.201 184.799L260.591 199.598L270.296 202.621L280 205.644L284.61 190.844L274.906 187.821ZM270.296 202.621V212.785H348.904V202.621V192.457H270.296V202.621ZM348.904 202.621L339.161 199.725L328.85 234.42L338.593 237.315L348.336 240.211L358.647 205.517L348.904 202.621ZM338.593 237.315L328.732 234.85C328.561 235.534 328.178 236.506 327.363 237.78L335.924 243.259L344.485 248.738C346.258 245.969 347.654 242.979 348.453 239.78L338.593 237.315ZM335.924 243.259L327.363 237.78C326.517 239.101 325.502 240.335 324.296 241.487L331.314 248.84L338.332 256.192C340.684 253.947 342.743 251.461 344.485 248.738L335.924 243.259ZM331.314 248.84L324.304 241.479C323.214 242.518 322.039 243.384 320.768 244.096L325.734 252.964L330.7 261.832C333.473 260.28 336.018 258.396 338.324 256.2L331.314 248.84ZM325.734 252.964L320.893 244.027C320.519 244.229 320.271 244.315 320.143 244.35C320.023 244.384 319.993 244.377 320.032 244.377V254.541V264.705C323.873 264.705 327.425 263.608 330.575 261.901L325.734 252.964ZM320.032 254.541V244.377H213.887V254.541V264.705H320.032V254.541Z" fill="#0E296D" mask="url(#path-8-outside-2_957_496)"/>
<defs>
<linearGradient id="paint0_linear_957_496" x1="216.795" y1="25.8948" x2="216.795" y2="100.348" gradientUnits="userSpaceOnUse">
<stop stop-color="#9DD9FE"/>
<stop offset="1" stop-color="#4FBCFF"/>
</linearGradient>
<linearGradient id="paint1_linear_957_496" x1="253.422" y1="202.675" x2="78.0674" y2="706.06" gradientUnits="userSpaceOnUse">
<stop stop-color="#F6FCFF"/>
<stop offset="0.191078" stop-color="#9DD9FE"/>
<stop offset="0.590357" stop-color="#92FEFE"/>
<stop offset="1" stop-color="white"/>
</linearGradient>
<linearGradient id="paint2_linear_957_496" x1="247.417" y1="196.675" x2="72.0625" y2="700.061" gradientUnits="userSpaceOnUse">
<stop stop-color="#F6FCFF"/>
<stop offset="0.191078" stop-color="#9DD9FE"/>
<stop offset="0.590357" stop-color="#92FEFE"/>
<stop offset="1" stop-color="white"/>
</linearGradient>
</defs>
</svg>
