<svg width="411" height="336" viewBox="0 0 411 336" fill="none" xmlns="http://www.w3.org/2000/svg">
<path d="M157.204 13.2459H161.213V17.4918H165.221V21.7377H169.23V25.9836H173.238V30.2295H177.247V34.4754H181.255V38.7213H185.264V42.9672H189.272V47.2131H193.281V51.4589H197.289V55.7048H201.297V59.9507H205.306V64.1966H385.686V68.4425H393.703V72.6884H397.712V81.1802H401.72V310.459H397.712V318.95H393.703V323.196H385.686V327.442H20.9171V323.196H16.9087V318.95H12.9002V314.704H8.89111V21.7377H12.9002V17.4918H16.9087V13.2459H20.9171V9H157.204V13.2459Z" fill="url(#paint0_linear_957_486)"/>
<rect x="8.89111" y="101.022" width="392.829" height="226.42" fill="#9DD9FE"/>
<mask id="mask0_957_486" style="mask-type:alpha" maskUnits="userSpaceOnUse" x="0" y="72" width="411" height="100">
<rect x="0.634766" y="72.5029" width="409.705" height="99.4608" fill="#92FEFE"/>
</mask>
<g mask="url(#mask0_957_486)">
<path d="M381.915 97.0854V100.674H393.941V104.264H397.949V107.853H401.957V115.031H405.966V313.743H401.957V320.921H397.949V324.51H393.941V328.099H385.924V331.688H20.6799V328.099H12.6633V324.51H8.65454V320.921H4.64575V111.442H8.65454V104.264H16.6711V100.674H24.6877V97.0854H381.915Z" stroke="#0E296D" stroke-width="8.49179"/>
</g>
<path d="M161.451 4.75391V9H165.458V13.2461H169.467V17.4922H173.476V21.7373H177.484V25.9834H181.493V30.2295H185.501V34.4756H189.509V38.7217H193.518V42.9668H197.527V47.2129H201.535V51.459H205.543V55.7051H209.552V59.9512H389.932V64.1963H397.949V68.4424H401.958V76.9346H405.966V314.704H401.958V323.196H397.949V327.442H389.932V331.688H16.6714V327.442H12.6626V323.196H8.65479V318.95H4.64502V17.4922H8.65479V13.2461H12.6626V9H16.6714V4.75391H161.451Z" stroke="#0E296D" stroke-width="8.49179"/>
<mask id="path-6-outside-1_957_486" maskUnits="userSpaceOnUse" x="143.035" y="164.541" width="174" height="107" fill="black">
<rect fill="white" x="143.035" y="164.541" width="174" height="107"/>
<path d="M157.681 260.541L162.897 243.315H238.473C240.414 243.315 242.193 242.789 243.81 241.738C245.428 240.605 246.803 239.271 247.935 237.735C248.501 237.007 249.027 235.996 249.512 234.702C250.078 233.327 250.563 231.952 250.967 230.577C251.372 229.041 251.776 227.383 252.181 225.604L168.356 225.482L183.035 175.624H302.645L297.186 193.821H218.699L214.09 208.62H292.698L282.386 243.315C281.901 245.256 281.012 247.237 279.718 249.259C278.424 251.281 276.887 253.141 275.108 254.839C273.41 256.456 271.549 257.831 269.528 258.964C267.587 260.015 265.686 260.541 263.826 260.541H157.681Z"/>
</mask>
<path d="M157.681 260.541L162.897 243.315H238.473C240.414 243.315 242.193 242.789 243.81 241.738C245.428 240.605 246.803 239.271 247.935 237.735C248.501 237.007 249.027 235.996 249.512 234.702C250.078 233.327 250.563 231.952 250.967 230.577C251.372 229.041 251.776 227.383 252.181 225.604L168.356 225.482L183.035 175.624H302.645L297.186 193.821H218.699L214.09 208.62H292.698L282.386 243.315C281.901 245.256 281.012 247.237 279.718 249.259C278.424 251.281 276.887 253.141 275.108 254.839C273.41 256.456 271.549 257.831 269.528 258.964C267.587 260.015 265.686 260.541 263.826 260.541H157.681Z" fill="#0E296D"/>
<path d="M157.681 260.541L147.953 257.595L143.983 270.705H157.681V260.541ZM162.897 243.315V233.15H155.355L153.169 240.369L162.897 243.315ZM243.81 241.738L249.35 250.26L249.496 250.165L249.639 250.065L243.81 241.738ZM247.935 237.735L239.912 231.494L239.83 231.599L239.752 231.705L247.935 237.735ZM249.512 234.702L240.113 230.832L240.051 230.981L239.995 231.133L249.512 234.702ZM250.967 230.577L260.719 233.445L260.76 233.305L260.797 233.164L250.967 230.577ZM252.181 225.604L262.092 227.856L264.91 215.458L252.195 215.439L252.181 225.604ZM168.356 225.482L158.606 222.612L154.774 235.627L168.342 235.647L168.356 225.482ZM183.035 175.624V165.46H175.431L173.284 172.754L183.035 175.624ZM302.645 175.624L312.381 178.545L316.306 165.46H302.645V175.624ZM297.186 193.821V203.985H304.749L306.922 196.741L297.186 193.821ZM218.699 193.821V183.657H211.219L208.995 190.798L218.699 193.821ZM214.09 208.62L204.385 205.598L200.278 218.785H214.09V208.62ZM292.698 208.62L302.441 211.516L306.322 198.456H292.698V208.62ZM282.386 243.315L272.643 240.419L272.58 240.633L272.526 240.85L282.386 243.315ZM279.718 249.259L271.157 243.78L271.157 243.78L279.718 249.259ZM275.108 254.839L282.118 262.199L282.126 262.191L275.108 254.839ZM269.528 258.964L274.369 267.901L274.432 267.867L274.494 267.832L269.528 258.964ZM157.681 260.541L167.409 263.486L172.625 246.261L162.897 243.315L153.169 240.369L147.953 257.595L157.681 260.541ZM162.897 243.315V253.479H238.473V243.315V233.15H162.897V243.315ZM238.473 243.315V253.479C242.367 253.479 246.073 252.39 249.35 250.26L243.81 241.738L238.271 233.216C238.257 233.224 238.263 233.22 238.287 233.209C238.311 233.197 238.344 233.184 238.383 233.173C238.421 233.161 238.454 233.155 238.476 233.152C238.497 233.149 238.498 233.15 238.473 233.15V243.315ZM243.81 241.738L249.639 250.065C252.129 248.321 254.308 246.219 256.118 243.764L247.935 237.735L239.752 231.705C239.297 232.323 238.726 232.889 237.981 233.411L243.81 241.738ZM247.935 237.735L255.958 243.975C257.384 242.141 258.344 240.097 259.029 238.271L249.512 234.702L239.995 231.133C239.867 231.474 239.775 231.665 239.736 231.741C239.718 231.776 239.719 231.77 239.744 231.73C239.768 231.692 239.822 231.609 239.912 231.494L247.935 237.735ZM249.512 234.702L258.91 238.572C259.606 236.882 260.211 235.173 260.719 233.445L250.967 230.577L241.216 227.709C240.915 228.732 240.549 229.772 240.113 230.832L249.512 234.702ZM250.967 230.577L260.797 233.164C261.235 231.502 261.666 229.731 262.092 227.856L252.181 225.604L242.269 223.351C241.886 225.034 241.509 226.58 241.138 227.991L250.967 230.577ZM252.181 225.604L252.195 215.439L168.371 215.318L168.356 225.482L168.342 235.647L252.166 235.768L252.181 225.604ZM168.356 225.482L178.107 228.353L192.785 178.495L183.035 175.624L173.284 172.754L158.606 222.612L168.356 225.482ZM183.035 175.624V185.789H302.645V175.624V165.46H183.035V175.624ZM302.645 175.624L292.909 172.704L287.45 190.9L297.186 193.821L306.922 196.741L312.381 178.545L302.645 175.624ZM297.186 193.821V183.657H218.699V193.821V203.985H297.186V193.821ZM218.699 193.821L208.995 190.798L204.385 205.598L214.09 208.62L223.794 211.643L228.404 196.843L218.699 193.821ZM214.09 208.62V218.785H292.698V208.62V198.456H214.09V208.62ZM292.698 208.62L282.955 205.725L272.643 240.419L282.386 243.315L292.129 246.21L302.441 211.516L292.698 208.62ZM282.386 243.315L272.526 240.85C272.355 241.533 271.972 242.506 271.157 243.78L279.718 249.259L288.279 254.738C290.051 251.968 291.448 248.978 292.247 245.78L282.386 243.315ZM279.718 249.259L271.157 243.78C270.311 245.101 269.296 246.335 268.09 247.487L275.108 254.839L282.126 262.191C284.478 259.946 286.536 257.46 288.279 254.738L279.718 249.259ZM275.108 254.839L268.098 247.479C267.008 248.517 265.833 249.383 264.561 250.095L269.528 258.964L274.494 267.832C277.266 266.279 279.811 264.396 282.118 262.199L275.108 254.839ZM269.528 258.964L264.687 250.026C264.313 250.229 264.065 250.315 263.937 250.35C263.816 250.383 263.787 250.376 263.826 250.376V260.541V270.705C267.666 270.705 271.219 269.607 274.369 267.901L269.528 258.964ZM263.826 260.541V250.376H157.681V260.541V270.705H263.826V260.541Z" fill="#0E296D" mask="url(#path-6-outside-1_957_486)"/>
<mask id="path-8-outside-2_957_486" maskUnits="userSpaceOnUse" x="137.03" y="158.541" width="174" height="107" fill="black">
<rect fill="white" x="137.03" y="158.541" width="174" height="107"/>
<path d="M151.676 254.541L156.893 237.315H232.468C234.409 237.315 236.188 236.79 237.805 235.738C239.423 234.606 240.798 233.272 241.93 231.735C242.496 231.007 243.022 229.996 243.507 228.702C244.073 227.327 244.558 225.953 244.963 224.578C245.367 223.041 245.771 221.383 246.176 219.604L162.351 219.483L177.03 169.625H296.64L291.181 187.821H212.694L208.085 202.621H286.693L276.381 237.315C275.896 239.256 275.007 241.238 273.713 243.259C272.419 245.281 270.882 247.141 269.103 248.84C267.405 250.457 265.545 251.832 263.523 252.964C261.582 254.015 259.681 254.541 257.821 254.541H151.676Z"/>
</mask>
<path d="M151.676 254.541L156.893 237.315H232.468C234.409 237.315 236.188 236.79 237.805 235.738C239.423 234.606 240.798 233.272 241.93 231.735C242.496 231.007 243.022 229.996 243.507 228.702C244.073 227.327 244.558 225.953 244.963 224.578C245.367 223.041 245.771 221.383 246.176 219.604L162.351 219.483L177.03 169.625H296.64L291.181 187.821H212.694L208.085 202.621H286.693L276.381 237.315C275.896 239.256 275.007 241.238 273.713 243.259C272.419 245.281 270.882 247.141 269.103 248.84C267.405 250.457 265.545 251.832 263.523 252.964C261.582 254.015 259.681 254.541 257.821 254.541H151.676Z" fill="url(#paint1_linear_957_486)"/>
<path d="M151.676 254.541L141.948 251.595L137.978 264.705H151.676V254.541ZM156.893 237.315V227.151H149.35L147.164 234.369L156.893 237.315ZM237.805 235.738L243.345 244.26L243.491 244.165L243.634 244.065L237.805 235.738ZM241.93 231.735L233.907 225.495L233.825 225.599L233.747 225.706L241.93 231.735ZM243.507 228.702L234.108 224.832L234.047 224.982L233.99 225.133L243.507 228.702ZM244.963 224.578L254.714 227.446L254.755 227.306L254.792 227.165L244.963 224.578ZM246.176 219.604L256.087 221.857L258.905 209.458L246.19 209.44L246.176 219.604ZM162.351 219.483L152.601 216.612L148.769 229.627L162.337 229.647L162.351 219.483ZM177.03 169.625V159.461H169.427L167.279 166.754L177.03 169.625ZM296.64 169.625L306.376 172.546L310.301 159.461H296.64V169.625ZM291.181 187.821V197.986H298.744L300.917 190.742L291.181 187.821ZM212.694 187.821V177.657H205.214L202.99 184.799L212.694 187.821ZM208.085 202.621L198.38 199.598L194.273 212.785H208.085V202.621ZM286.693 202.621L296.436 205.517L300.317 192.457H286.693V202.621ZM276.381 237.315L266.638 234.42L266.575 234.633L266.521 234.85L276.381 237.315ZM273.713 243.259L265.152 237.78L265.152 237.78L273.713 243.259ZM269.103 248.84L276.113 256.2L276.121 256.192L269.103 248.84ZM263.523 252.964L268.364 261.901L268.427 261.867L268.489 261.832L263.523 252.964ZM151.676 254.541L161.404 257.487L166.621 240.261L156.893 237.315L147.164 234.369L141.948 251.595L151.676 254.541ZM156.893 237.315V247.479H232.468V237.315V227.151H156.893V237.315ZM232.468 237.315V247.479C236.362 247.479 240.068 246.39 243.345 244.26L237.805 235.738L232.266 227.216C232.252 227.225 232.258 227.22 232.282 227.209C232.306 227.198 232.339 227.185 232.378 227.173C232.417 227.162 232.449 227.155 232.471 227.152C232.492 227.149 232.493 227.151 232.468 227.151V237.315ZM237.805 235.738L243.634 244.065C246.124 242.322 248.303 240.22 250.113 237.764L241.93 231.735L233.747 225.706C233.292 226.323 232.721 226.89 231.977 227.411L237.805 235.738ZM241.93 231.735L249.953 237.975C251.379 236.142 252.339 234.097 253.024 232.271L243.507 228.702L233.99 225.133C233.862 225.475 233.77 225.666 233.731 225.742C233.713 225.776 233.714 225.77 233.739 225.731C233.763 225.692 233.818 225.609 233.907 225.495L241.93 231.735ZM243.507 228.702L252.906 232.572C253.602 230.882 254.206 229.173 254.714 227.446L244.963 224.578L235.211 221.71C234.911 222.732 234.544 223.773 234.108 224.832L243.507 228.702ZM244.963 224.578L254.792 227.165C255.23 225.502 255.661 223.732 256.087 221.857L246.176 219.604L236.264 217.352C235.882 219.035 235.504 220.58 235.133 221.991L244.963 224.578ZM246.176 219.604L246.19 209.44L162.366 209.319L162.351 219.483L162.337 229.647L246.161 229.768L246.176 219.604ZM162.351 219.483L172.102 222.353L186.78 172.496L177.03 169.625L167.279 166.754L152.601 216.612L162.351 219.483ZM177.03 169.625V179.789H296.64V169.625V159.461H177.03V169.625ZM296.64 169.625L286.904 166.704L281.446 184.901L291.181 187.821L300.917 190.742L306.376 172.546L296.64 169.625ZM291.181 187.821V177.657H212.694V187.821V197.986H291.181V187.821ZM212.694 187.821L202.99 184.799L198.38 199.598L208.085 202.621L217.789 205.644L222.399 190.844L212.694 187.821ZM208.085 202.621V212.785H286.693V202.621V192.457H208.085V202.621ZM286.693 202.621L276.95 199.725L266.638 234.42L276.381 237.315L286.125 240.211L296.436 205.517L286.693 202.621ZM276.381 237.315L266.521 234.85C266.35 235.534 265.967 236.506 265.152 237.78L273.713 243.259L282.274 248.738C284.046 245.969 285.443 242.979 286.242 239.78L276.381 237.315ZM273.713 243.259L265.152 237.78C264.306 239.101 263.291 240.335 262.085 241.487L269.103 248.84L276.121 256.192C278.473 253.947 280.531 251.461 282.274 248.738L273.713 243.259ZM269.103 248.84L262.093 241.479C261.003 242.518 259.828 243.384 258.556 244.096L263.523 252.964L268.489 261.832C271.261 260.28 273.807 258.396 276.113 256.2L269.103 248.84ZM263.523 252.964L258.682 244.027C258.308 244.229 258.06 244.315 257.932 244.35C257.811 244.384 257.782 244.377 257.821 244.377V254.541V264.705C261.662 264.705 265.214 263.608 268.364 261.901L263.523 252.964ZM257.821 254.541V244.377H151.676V254.541V264.705H257.821V254.541Z" fill="#0E296D" mask="url(#path-8-outside-2_957_486)"/>
<defs>
<linearGradient id="paint0_linear_957_486" x1="205.306" y1="25.8948" x2="205.306" y2="100.348" gradientUnits="userSpaceOnUse">
<stop stop-color="#9DD9FE"/>
<stop offset="1" stop-color="#4FBCFF"/>
</linearGradient>
<linearGradient id="paint1_linear_957_486" x1="248.052" y1="196.675" x2="72.6972" y2="700.061" gradientUnits="userSpaceOnUse">
<stop stop-color="#F6FCFF"/>
<stop offset="0.191078" stop-color="#9DD9FE"/>
<stop offset="0.590357" stop-color="#92FEFE"/>
<stop offset="1" stop-color="white"/>
</linearGradient>
</defs>
</svg>
