<svg width="413" height="102" viewBox="0 0 413 102" fill="none" xmlns="http://www.w3.org/2000/svg">
<path d="M384.07 0.986816C396.11 0.986816 405.872 10.7478 405.872 22.7886V54.5581C405.872 66.166 396.798 75.6526 385.358 76.3188C385.465 76.4202 385.575 76.5257 385.69 76.6304C386.868 77.6977 388.203 78.6845 389.433 79.5044H389.432L389.969 79.856H389.968C393.56 82.1904 394.726 86.2941 393.937 89.6909C393.12 93.2026 389.994 96.6314 385.272 96.7466C380.393 96.8652 371.444 96.564 362.778 93.3062C355.422 90.5405 347.787 85.4185 343.496 76.3589H22.2891C10.2494 76.3588 0.488819 66.5976 0.488281 54.5581V22.7593L0.489258 22.731L0.494141 22.2866L0.495117 22.2573L0.496094 22.229C0.794313 10.4466 10.4363 0.986946 22.2891 0.986816H384.07ZM388.59 84.7202L388.473 84.5776C388.455 84.5573 388.437 84.5372 388.419 84.5171C388.478 84.5836 388.535 84.6514 388.59 84.7202ZM22.2891 71.769H346.56C346.663 72.0604 346.771 72.3481 346.882 72.6313L346.56 71.7681H22.2891C22.1534 71.7681 22.0178 71.7663 21.8828 71.7632C22.0178 71.7663 22.1533 71.769 22.2891 71.769ZM384.072 71.7681H377.97V71.769H384.072C384.209 71.769 384.346 71.7664 384.482 71.7632C384.346 71.7664 384.209 71.7681 384.072 71.7681ZM21.9336 68.3218L22.2891 68.3267C22.2104 68.3267 22.132 68.3235 22.0537 68.3218C21.996 68.3208 21.9384 68.3195 21.8809 68.3179C21.8653 68.3174 21.8495 68.3184 21.834 68.3179C21.8671 68.3189 21.9004 68.3209 21.9336 68.3218ZM384.495 68.3179C384.426 68.32 384.356 68.3207 384.286 68.3218C384.215 68.3233 384.144 68.3267 384.072 68.3267L384.427 68.3218C384.454 68.3211 384.482 68.3187 384.509 68.3179C384.504 68.318 384.5 68.3177 384.495 68.3179Z" fill="#0E296D"/>
<path d="M390.541 15.9043C396.878 15.9043 402.016 21.0413 402.016 27.3779V59.1475C402.016 65.484 396.879 70.6208 390.542 70.6211H378.358L378.419 72.9756C378.504 76.2441 378.958 79.8575 380.344 82.7295C381.477 85.0777 383.342 87.1627 385.225 88.8701C386.067 89.6339 386.939 90.3414 387.79 90.9873C383.545 90.8282 378.056 90.1744 372.883 88.2295C366.089 85.6751 360.028 80.9861 357.795 72.3418L357.351 70.6211H28.7588C22.4221 70.6208 17.2852 65.4842 17.2852 59.1475V27.3779C17.2852 21.0412 22.4222 15.9045 28.7588 15.9043H390.541ZM9.25391 59.1475C9.25392 69.92 17.9863 78.6531 28.7588 78.6533H351.458C355.289 87.8494 362.724 92.9901 370.057 95.7471C378.321 98.854 386.928 99.1576 391.687 99.042H391.688C395.214 98.9558 397.556 96.4071 398.171 93.7607C398.766 91.1987 397.884 88.1172 395.182 86.3652L394.614 85.9932C393.327 85.1342 391.901 84.0819 390.619 82.9199C389.097 81.5393 388.074 80.2664 387.578 79.2393L387.445 78.9443C387.407 78.8516 387.37 78.7543 387.333 78.6533H390.542C401.314 78.6529 410.048 69.9202 410.048 59.1475V27.3779C410.048 16.6048 401.313 7.87212 390.541 7.87207H28.7588C18.3197 7.87231 9.79647 16.0726 9.27832 26.3838L9.25977 26.876V26.9053L9.25391 27.3486V59.1475Z" fill="#0E296D" stroke="#0E296D" stroke-width="4.58957"/>
<path d="M384.071 11.313C390.408 11.313 395.545 16.45 395.545 22.7866V54.5562C395.545 60.8927 390.409 66.0295 384.072 66.0298H371.888L371.949 68.3843C372.033 71.6527 372.488 75.2662 373.874 78.1382C375.03 80.5334 377.214 82.8113 379.184 84.561C380.085 85.361 380.991 86.0895 381.814 86.7173C378.424 86.5269 373.167 85.799 367.9 83.8765C360.462 81.1618 353.528 76.2813 351.325 67.7505L350.88 66.0298H22.2886C15.9519 66.0295 10.815 60.8929 10.8149 54.5562V22.7866C10.815 16.4499 15.9519 11.3132 22.2886 11.313H384.071ZM2.78369 54.5562C2.7837 65.3287 11.5161 74.0618 22.2886 74.062H344.988C348.819 83.2581 356.253 88.3988 363.586 91.1558C371.85 94.2627 380.458 94.5663 385.216 94.4507H385.217C388.744 94.3645 391.085 91.8158 391.701 89.1694C392.296 86.6074 391.414 83.5259 388.711 81.7739L388.144 81.4019C386.857 80.5429 385.43 79.4906 384.149 78.3286C382.626 76.948 381.604 75.6751 381.108 74.6479L380.975 74.353C380.936 74.2603 380.9 74.163 380.863 74.062H384.072C394.844 74.0616 403.578 65.3289 403.578 54.5562V22.7866C403.578 12.0135 394.843 3.28081 384.071 3.28076H22.2886C11.8495 3.281 3.32626 11.4813 2.80811 21.7925L2.78955 22.2847V22.314L2.78369 22.7573V54.5562Z" fill="#CBF3FB" stroke="#0E296D" stroke-width="4.58957"/>
<path d="M34.2538 47.315C33.5293 47.315 32.7413 47.2969 31.8899 47.2607C31.0566 47.2245 30.2323 47.1701 29.4172 47.0977C28.6201 47.0252 27.9046 46.9527 27.2705 46.8803V43.375C27.9408 43.4294 28.6111 43.4837 29.2813 43.5381C29.9697 43.5924 30.6218 43.6287 31.2377 43.6468C31.8536 43.6649 32.3699 43.6739 32.7865 43.6739C33.6561 43.6739 34.3173 43.6468 34.7701 43.5924C35.223 43.52 35.5581 43.4203 35.7755 43.2935C35.9204 43.1667 36.0201 43.0309 36.0744 42.8859C36.1469 42.741 36.1921 42.5689 36.2103 42.3697C36.2284 42.1704 36.2374 41.944 36.2374 41.6904C36.2374 41.3099 36.2103 41.011 36.1559 40.7937C36.1197 40.5582 36.0291 40.377 35.8842 40.2502C35.7574 40.1234 35.5581 40.0328 35.2864 39.9785C35.0147 39.906 34.6614 39.8426 34.2267 39.7883L30.3954 39.2992C29.6527 39.2086 29.0458 39.0275 28.5748 38.7557C28.1038 38.4659 27.7325 38.0855 27.4608 37.6145C27.189 37.1435 26.9988 36.591 26.8901 35.957C26.7814 35.3048 26.7271 34.5803 26.7271 33.7832C26.7271 32.5514 26.9083 31.5732 27.2705 30.8486C27.6328 30.1059 28.131 29.5443 28.765 29.1639C29.4172 28.7654 30.1689 28.5027 31.0203 28.3759C31.8899 28.2491 32.8318 28.1857 33.8463 28.1857C34.5709 28.1857 35.3226 28.2129 36.1016 28.2672C36.8805 28.3034 37.6142 28.3668 38.3025 28.4574C38.9909 28.5299 39.5615 28.6204 40.0144 28.7291V32.1529C39.5615 32.0804 39.0271 32.026 38.4112 31.9898C37.8134 31.9355 37.1885 31.8992 36.5363 31.8811C35.8842 31.8449 35.2683 31.8268 34.6886 31.8268C33.9821 31.8268 33.4206 31.854 33.0039 31.9083C32.5873 31.9445 32.2612 32.026 32.0257 32.1529C31.7721 32.2978 31.6091 32.488 31.5366 32.7235C31.4823 32.959 31.4551 33.2579 31.4551 33.6202C31.4551 34.073 31.4913 34.4263 31.5638 34.6799C31.6362 34.9154 31.7993 35.0784 32.0529 35.169C32.3065 35.2596 32.696 35.3411 33.2213 35.4135L36.9439 35.8483C37.4511 35.9026 37.9131 35.9932 38.3297 36.12C38.7645 36.2468 39.1539 36.4461 39.4981 36.7178C39.8604 36.9895 40.1593 37.379 40.3948 37.8862C40.5216 38.1217 40.6212 38.4116 40.6937 38.7557C40.7662 39.0818 40.8296 39.4622 40.8839 39.897C40.9383 40.3317 40.9654 40.8208 40.9654 41.3643C40.9654 42.4331 40.8567 43.3388 40.6394 44.0815C40.422 44.8061 40.114 45.3858 39.7155 45.8206C39.317 46.2372 38.8369 46.5633 38.2754 46.7988C37.7138 47.0161 37.0888 47.152 36.4005 47.2063C35.7302 47.2788 35.0147 47.315 34.2538 47.315ZM51.6499 47.315C50.2369 47.315 49.0595 47.2245 48.1175 47.0433C47.1755 46.844 46.4056 46.527 45.8078 46.0923C45.2282 45.6575 44.7843 45.0778 44.4764 44.3532C44.1866 43.6287 43.9873 42.7229 43.8786 41.636C43.7699 40.5491 43.7156 39.2539 43.7156 37.7504C43.7156 36.2468 43.7699 34.9516 43.8786 33.8647C43.9873 32.7778 44.1866 31.8721 44.4764 31.1475C44.7843 30.4229 45.2282 29.8432 45.8078 29.4084C46.4056 28.9737 47.1755 28.6657 48.1175 28.4846C49.0595 28.2853 50.2369 28.1857 51.6499 28.1857C52.1933 28.1857 52.7549 28.2038 53.3346 28.24C53.9143 28.2763 54.4758 28.3306 55.0193 28.4031C55.5627 28.4755 56.0246 28.5661 56.4051 28.6748V32.0713C55.8435 32.017 55.3272 31.9717 54.8562 31.9355C54.4034 31.8811 54.0048 31.854 53.6607 31.854C53.3165 31.8358 53.0266 31.8268 52.7911 31.8268C51.9579 31.8268 51.2695 31.863 50.726 31.9355C50.2007 31.9898 49.7841 32.1257 49.4761 32.3431C49.1682 32.5604 48.9417 32.8865 48.7968 33.3213C48.6519 33.7379 48.5522 34.3085 48.4979 35.0331C48.4617 35.7396 48.4436 36.6454 48.4436 37.7504C48.4436 38.8373 48.4617 39.743 48.4979 40.4676C48.5522 41.1922 48.6519 41.7719 48.7968 42.2066C48.9417 42.6414 49.1682 42.9675 49.4761 43.1848C49.7841 43.3841 50.2007 43.52 50.726 43.5924C51.2695 43.6468 51.9579 43.6739 52.7911 43.6739C53.3527 43.6739 53.9867 43.6558 54.6932 43.6196C55.3997 43.5652 56.0065 43.5018 56.5138 43.4294V46.9074C56.1152 46.9799 55.6352 47.0433 55.0736 47.0977C54.5121 47.1701 53.9324 47.2245 53.3346 47.2607C52.7549 47.2969 52.1933 47.315 51.6499 47.315ZM59.6471 47.0977V28.4031H68.9128C70.1265 28.4031 71.1047 28.5389 71.8475 28.8107C72.6083 29.0643 73.1789 29.4537 73.5593 29.9791C73.9578 30.4863 74.2205 31.1203 74.3473 31.8811C74.4922 32.6238 74.5647 33.4752 74.5647 34.4353C74.5647 35.1418 74.5104 35.8574 74.4017 36.5819C74.293 37.2884 74.0575 37.9406 73.6952 38.5384C73.351 39.118 72.8166 39.5619 72.092 39.8698L74.9179 47.0977H69.9997L67.364 39.6253L68.5596 40.2774C68.3966 40.368 68.2245 40.4223 68.0433 40.4404C67.8803 40.4585 67.672 40.4676 67.4184 40.4676H64.3751V47.0977H59.6471ZM64.3751 36.9624H67.0923C67.7082 36.9624 68.1973 36.9352 68.5596 36.8808C68.94 36.8084 69.2208 36.6816 69.4019 36.5004C69.5831 36.3193 69.7008 36.0657 69.7552 35.7396C69.8095 35.4135 69.8367 34.9969 69.8367 34.4897C69.8367 33.9643 69.8095 33.5386 69.7552 33.2126C69.719 32.8865 69.6103 32.642 69.4291 32.4789C69.2661 32.2978 68.9944 32.171 68.6139 32.0985C68.2516 32.026 67.7444 31.9898 67.0923 31.9898H64.3751V36.9624ZM85.5118 47.315C83.9358 47.315 82.6406 47.2245 81.6261 47.0433C80.6298 46.844 79.8509 46.5361 79.2893 46.1195C78.7277 45.6847 78.3111 45.105 78.0394 44.3804C77.7858 43.6377 77.6227 42.7229 77.5503 41.636C77.4959 40.5491 77.4687 39.2539 77.4687 37.7504C77.4687 36.2468 77.4959 34.9516 77.5503 33.8647C77.6227 32.7778 77.7858 31.8721 78.0394 31.1475C78.3111 30.4048 78.7277 29.8251 79.2893 29.4084C79.8509 28.9737 80.6298 28.6657 81.6261 28.4846C82.6406 28.2853 83.9358 28.1857 85.5118 28.1857C87.0696 28.1857 88.3467 28.2853 89.3431 28.4846C90.3575 28.6657 91.1546 28.9737 91.7342 29.4084C92.3139 29.8251 92.7306 30.4048 92.9842 31.1475C93.2378 31.8721 93.4008 32.7778 93.4733 33.8647C93.5457 34.9516 93.582 36.2468 93.582 37.7504C93.582 39.2539 93.5457 40.5491 93.4733 41.636C93.4008 42.7229 93.2378 43.6377 92.9842 44.3804C92.7306 45.105 92.3139 45.6847 91.7342 46.1195C91.1546 46.5361 90.3575 46.844 89.3431 47.0433C88.3467 47.2245 87.0696 47.315 85.5118 47.315ZM85.5118 43.6739C86.1639 43.6739 86.6892 43.6558 87.0878 43.6196C87.5044 43.5652 87.8305 43.4475 88.066 43.2664C88.3015 43.0671 88.4736 42.7591 88.5822 42.3425C88.6909 41.9258 88.7543 41.3462 88.7724 40.6035C88.8087 39.8607 88.8268 38.9097 88.8268 37.7504C88.8268 36.591 88.8087 35.64 88.7724 34.8973C88.7543 34.1546 88.6909 33.5749 88.5822 33.1582C88.4736 32.7416 88.3015 32.4427 88.066 32.2615C87.8305 32.0623 87.5044 31.9445 87.0878 31.9083C86.6892 31.854 86.1639 31.8268 85.5118 31.8268C84.8777 31.8268 84.3524 31.854 83.9358 31.9083C83.5191 31.9445 83.1931 32.0623 82.9576 32.2615C82.7221 32.4427 82.55 32.7416 82.4413 33.1582C82.3326 33.5749 82.2601 34.1546 82.2239 34.8973C82.2058 35.64 82.1967 36.591 82.1967 37.7504C82.1967 38.9097 82.2058 39.8607 82.2239 40.6035C82.2601 41.3462 82.3326 41.9258 82.4413 42.3425C82.55 42.7591 82.7221 43.0671 82.9576 43.2664C83.1931 43.4475 83.5191 43.5652 83.9358 43.6196C84.3524 43.6558 84.8777 43.6739 85.5118 43.6739ZM97.0091 47.0977V28.4031H101.737V43.2935H109.019V47.0977H97.0091ZM111.577 47.0977V28.4031H116.305V43.2935H123.587V47.0977H111.577ZM136.686 47.0977V32.2072H131.578V28.4031H146.55V32.2072H141.414V47.0977H136.686ZM156.574 47.315C154.998 47.315 153.703 47.2245 152.688 47.0433C151.692 46.844 150.913 46.5361 150.351 46.1195C149.79 45.6847 149.373 45.105 149.101 44.3804C148.848 43.6377 148.685 42.7229 148.612 41.636C148.558 40.5491 148.531 39.2539 148.531 37.7504C148.531 36.2468 148.558 34.9516 148.612 33.8647C148.685 32.7778 148.848 31.8721 149.101 31.1475C149.373 30.4048 149.79 29.8251 150.351 29.4084C150.913 28.9737 151.692 28.6657 152.688 28.4846C153.703 28.2853 154.998 28.1857 156.574 28.1857C158.132 28.1857 159.409 28.2853 160.405 28.4846C161.42 28.6657 162.217 28.9737 162.796 29.4084C163.376 29.8251 163.793 30.4048 164.046 31.1475C164.3 31.8721 164.463 32.7778 164.535 33.8647C164.608 34.9516 164.644 36.2468 164.644 37.7504C164.644 39.2539 164.608 40.5491 164.535 41.636C164.463 42.7229 164.3 43.6377 164.046 44.3804C163.793 45.105 163.376 45.6847 162.796 46.1195C162.217 46.5361 161.42 46.844 160.405 47.0433C159.409 47.2245 158.132 47.315 156.574 47.315ZM156.574 43.6739C157.226 43.6739 157.751 43.6558 158.15 43.6196C158.567 43.5652 158.893 43.4475 159.128 43.2664C159.364 43.0671 159.536 42.7591 159.644 42.3425C159.753 41.9258 159.816 41.3462 159.835 40.6035C159.871 39.8607 159.889 38.9097 159.889 37.7504C159.889 36.591 159.871 35.64 159.835 34.8973C159.816 34.1546 159.753 33.5749 159.644 33.1582C159.536 32.7416 159.364 32.4427 159.128 32.2615C158.893 32.0623 158.567 31.9445 158.15 31.9083C157.751 31.854 157.226 31.8268 156.574 31.8268C155.94 31.8268 155.415 31.854 154.998 31.9083C154.581 31.9445 154.255 32.0623 154.02 32.2615C153.784 32.4427 153.612 32.7416 153.503 33.1582C153.395 33.5749 153.322 34.1546 153.286 34.8973C153.268 35.64 153.259 36.591 153.259 37.7504C153.259 38.9097 153.268 39.8607 153.286 40.6035C153.322 41.3462 153.395 41.9258 153.503 42.3425C153.612 42.7591 153.784 43.0671 154.02 43.2664C154.255 43.4475 154.581 43.5652 154.998 43.6196C155.415 43.6558 155.94 43.6739 156.574 43.6739ZM174.944 47.0977V28.4031H179.672V43.2935H186.954V47.0977H174.944ZM189.512 47.0977V28.4031H202.609V32.0442H194.24V35.8755H201.332V39.4622H194.24V43.4566H202.609V47.0977H189.512ZM204.279 47.0977L210.202 28.4031H216.642L222.593 47.0977H217.81L216.696 43.4294H210.039L208.952 47.0977H204.279ZM211.045 39.8698H215.664L213.436 32.4789H213.245L211.045 39.8698ZM224.751 47.0977V28.4031H234.017C235.231 28.4031 236.209 28.5389 236.951 28.8107C237.712 29.0643 238.283 29.4537 238.663 29.9791C239.062 30.4863 239.324 31.1203 239.451 31.8811C239.596 32.6238 239.669 33.4752 239.669 34.4353C239.669 35.1418 239.614 35.8574 239.506 36.5819C239.397 37.2884 239.161 37.9406 238.799 38.5384C238.455 39.118 237.921 39.5619 237.196 39.8698L240.022 47.0977H235.104L232.468 39.6253L233.664 40.2774C233.501 40.368 233.328 40.4223 233.147 40.4404C232.984 40.4585 232.776 40.4676 232.522 40.4676H229.479V47.0977H224.751ZM229.479 36.9624H232.196C232.812 36.9624 233.301 36.9352 233.664 36.8808C234.044 36.8084 234.325 36.6816 234.506 36.5004C234.687 36.3193 234.805 36.0657 234.859 35.7396C234.914 35.4135 234.941 34.9969 234.941 34.4897C234.941 33.9643 234.914 33.5386 234.859 33.2126C234.823 32.8865 234.714 32.642 234.533 32.4789C234.37 32.2978 234.098 32.171 233.718 32.0985C233.356 32.026 232.848 31.9898 232.196 31.9898H229.479V36.9624ZM243.007 47.0977V28.4031H247.871L253.958 38.4297H254.094V28.4031H258.632V47.0977H254.203L247.681 36.1472H247.545V47.0977H243.007ZM269.357 47.0977V28.4031H275.851L279.574 39.4894H279.764L283.487 28.4031H289.954V47.0977H285.416V34.9516H285.226L281.177 47.0977H277.998L273.977 34.9516H273.759V47.0977H269.357ZM301.431 47.315C299.855 47.315 298.56 47.2245 297.546 47.0433C296.549 46.844 295.77 46.5361 295.209 46.1195C294.647 45.6847 294.231 45.105 293.959 44.3804C293.705 43.6377 293.542 42.7229 293.47 41.636C293.415 40.5491 293.388 39.2539 293.388 37.7504C293.388 36.2468 293.415 34.9516 293.47 33.8647C293.542 32.7778 293.705 31.8721 293.959 31.1475C294.231 30.4048 294.647 29.8251 295.209 29.4084C295.77 28.9737 296.549 28.6657 297.546 28.4846C298.56 28.2853 299.855 28.1857 301.431 28.1857C302.989 28.1857 304.266 28.2853 305.263 28.4846C306.277 28.6657 307.074 28.9737 307.654 29.4084C308.233 29.8251 308.65 30.4048 308.904 31.1475C309.157 31.8721 309.32 32.7778 309.393 33.8647C309.465 34.9516 309.501 36.2468 309.501 37.7504C309.501 39.2539 309.465 40.5491 309.393 41.636C309.32 42.7229 309.157 43.6377 308.904 44.3804C308.65 45.105 308.233 45.6847 307.654 46.1195C307.074 46.5361 306.277 46.844 305.263 47.0433C304.266 47.2245 302.989 47.315 301.431 47.315ZM301.431 43.6739C302.083 43.6739 302.609 43.6558 303.007 43.6196C303.424 43.5652 303.75 43.4475 303.985 43.2664C304.221 43.0671 304.393 42.7591 304.502 42.3425C304.61 41.9258 304.674 41.3462 304.692 40.6035C304.728 39.8607 304.746 38.9097 304.746 37.7504C304.746 36.591 304.728 35.64 304.692 34.8973C304.674 34.1546 304.61 33.5749 304.502 33.1582C304.393 32.7416 304.221 32.4427 303.985 32.2615C303.75 32.0623 303.424 31.9445 303.007 31.9083C302.609 31.854 302.083 31.8268 301.431 31.8268C300.797 31.8268 300.272 31.854 299.855 31.9083C299.439 31.9445 299.113 32.0623 298.877 32.2615C298.642 32.4427 298.469 32.7416 298.361 33.1582C298.252 33.5749 298.18 34.1546 298.143 34.8973C298.125 35.64 298.116 36.591 298.116 37.7504C298.116 38.9097 298.125 39.8607 298.143 40.6035C298.18 41.3462 298.252 41.9258 298.361 42.3425C298.469 42.7591 298.642 43.0671 298.877 43.2664C299.113 43.4475 299.439 43.5652 299.855 43.6196C300.272 43.6558 300.797 43.6739 301.431 43.6739ZM312.929 47.0977V28.4031H322.194C323.408 28.4031 324.386 28.5389 325.129 28.8107C325.89 29.0643 326.46 29.4537 326.841 29.9791C327.239 30.4863 327.502 31.1203 327.629 31.8811C327.774 32.6238 327.846 33.4752 327.846 34.4353C327.846 35.1418 327.792 35.8574 327.683 36.5819C327.574 37.2884 327.339 37.9406 326.977 38.5384C326.632 39.118 326.098 39.5619 325.374 39.8698L328.199 47.0977H323.281L320.646 39.6253L321.841 40.2774C321.678 40.368 321.506 40.4223 321.325 40.4404C321.162 40.4585 320.953 40.4676 320.7 40.4676H317.657V47.0977H312.929ZM317.657 36.9624H320.374C320.99 36.9624 321.479 36.9352 321.841 36.8808C322.222 36.8084 322.502 36.6816 322.683 36.5004C322.865 36.3193 322.982 36.0657 323.037 35.7396C323.091 35.4135 323.118 34.9969 323.118 34.4897C323.118 33.9643 323.091 33.5386 323.037 33.2126C323 32.8865 322.892 32.642 322.711 32.4789C322.548 32.2978 322.276 32.171 321.895 32.0985C321.533 32.026 321.026 31.9898 320.374 31.9898H317.657V36.9624ZM331.185 47.0977V28.4031H344.282V32.0442H335.913V35.8755H343.005V39.4622H335.913V43.4566H344.282V47.0977H331.185ZM359.808 47.2607L353.422 40.8752L355.596 38.7014L358.449 41.5545L359.128 42.6686L359.59 42.5055L359.373 41.2013V28.077H362.688V41.2013L362.471 42.5055L362.933 42.6686L363.612 41.5545L366.465 38.7014L368.639 40.8752L362.253 47.2607H359.808ZM376.658 47.2607L370.272 40.8752L372.446 38.7014L375.299 41.5545L375.978 42.6686L376.44 42.5055L376.223 41.2013V28.077H379.538V41.2013L379.321 42.5055L379.783 42.6686L380.462 41.5545L383.315 38.7014L385.489 40.8752L379.103 47.2607H376.658Z" fill="#CBF3FB"/>
<path d="M378.348 90.2944C388.639 91.8635 389.998 87.236 384.797 83.9878" stroke="#CBF3FB" stroke-width="3"/>
</svg>
