<svg width="242" height="61" viewBox="0 0 242 61" fill="none" xmlns="http://www.w3.org/2000/svg">
<g filter="url(#filter0_d_498_520)">
<path d="M233.816 29.2018V15.3002C233.816 9.6119 229.204 5.00098 223.516 5.00098V7.06082C228.067 7.06082 231.756 10.7497 231.756 15.3002V29.2018C231.756 33.7521 228.067 37.4409 223.517 37.4411H217.635C217.684 39.3346 217.949 41.2626 218.651 42.7168C219.789 45.0755 222.538 47.1511 224.424 48.3686C224.993 48.7358 224.795 49.6268 224.118 49.6432C218.787 49.7728 205.552 48.9057 202.591 37.4411L15.4832 37.4401C10.9327 37.4401 7.24385 33.7512 7.24385 29.2007V15.2992C7.24387 10.7487 10.9327 7.05984 15.4832 7.05984V5C9.8839 5 5.32823 9.46833 5.18736 15.0337L5.18399 15.2992V29.2007C5.18399 34.8888 9.7951 39.4999 15.4832 39.4999L201.069 39.5009C203.057 45.0861 207.364 48.1728 211.741 49.8182C216.446 51.5873 221.394 51.7699 224.168 51.7024C225.563 51.6684 226.497 50.6695 226.745 49.6037C226.985 48.57 226.625 47.3378 225.541 46.638L225.201 46.4154C224.392 45.8757 223.476 45.2022 222.64 44.4447C221.668 43.5626 220.912 42.6621 220.506 41.8216C220.209 41.2051 219.998 40.4118 219.865 39.5009H223.517C229.205 39.5007 233.816 34.8898 233.816 29.2018ZM15.4832 5V7.05984L223.516 7.06082V5.00098L15.4832 5Z" fill="#CBF3FB"/>
<path d="M13.188 2.70508V2.91504C7.53311 3.95636 3.20165 8.77388 2.90576 14.6572L2.89307 14.9756V15.0049L2.88916 15.2705V29.2012C2.8894 36.1563 8.52772 41.7948 15.4829 41.7949H199.527C202.007 47.243 206.536 50.3126 210.933 51.9658C216.04 53.8857 221.328 54.0665 224.224 53.9961C226.815 53.9329 228.531 52.0543 228.98 50.123C229.414 48.2548 228.773 46.0001 226.798 44.7178L226.458 44.4951C225.715 43.9985 224.903 43.3987 224.182 42.7451C223.807 42.4045 223.498 42.0848 223.25 41.7959H223.517C230.472 41.7955 236.111 36.1574 236.111 29.2021V15.2998C236.111 9.12802 231.67 3.99492 225.811 2.91602V2.70605H17.7778V2.70508H13.188ZM221.221 9.35449V9.35547H223.516C226.799 9.3555 229.461 12.0171 229.461 15.2998V29.2021C229.461 32.4847 226.8 35.1461 223.517 35.1465H215.28L215.341 37.5C215.393 39.4978 215.669 41.8177 216.584 43.7139C217.211 45.0115 218.159 46.1568 219.133 47.1162C217.264 46.8904 215.225 46.4757 213.274 45.7422C209.396 44.2841 206.052 41.6646 204.813 36.8672L204.369 35.1465H202.591L15.4829 35.1455C12.2001 35.1454 9.53881 32.484 9.53857 29.2012V15.2988C9.53879 12.016 12.2001 9.35465 15.4829 9.35449H221.221Z" stroke="#0E296D" stroke-width="4.58957"/>
</g>
<path d="M15.6618 7.05963C11.1113 7.05963 7.42247 10.7485 7.42245 15.299L7.42232 29.2006C7.42232 33.751 11.1112 37.4399 15.6617 37.4399L202.591 37.4399C205.552 48.9045 218.787 49.7716 224.118 49.6421C224.795 49.6256 224.993 48.7347 224.424 48.3674C222.538 47.15 219.789 45.0743 218.651 42.7156C217.949 41.2614 217.684 39.3334 217.635 37.4399H223.517C228.067 37.4398 231.756 33.7509 231.756 29.2006L231.756 15.299C231.756 10.7485 228.067 7.05963 223.516 7.05963H15.6618Z" fill="#0E296D"/>
<path d="M21.104 28.5809C20.24 28.5809 19.4774 28.4263 18.816 28.1169C18.1547 27.8076 17.6374 27.3649 17.264 26.7889C16.8907 26.2129 16.704 25.5196 16.704 24.7089V24.2609H18.784V24.7089C18.784 25.3809 18.992 25.8876 19.408 26.2289C19.824 26.5596 20.3894 26.7249 21.104 26.7249C21.8294 26.7249 22.368 26.5809 22.72 26.2929C23.0827 26.0049 23.264 25.6369 23.264 25.1889C23.264 24.8796 23.1734 24.6289 22.992 24.4369C22.8214 24.2449 22.5654 24.0903 22.224 23.9729C21.8934 23.8449 21.488 23.7276 21.008 23.6209L20.64 23.5409C19.872 23.3703 19.2107 23.1569 18.656 22.9009C18.112 22.6343 17.6907 22.2876 17.392 21.8609C17.104 21.4343 16.96 20.8796 16.96 20.1969C16.96 19.5143 17.12 18.9329 17.44 18.4529C17.7707 17.9623 18.2294 17.5889 18.816 17.3329C19.4134 17.0663 20.112 16.9329 20.912 16.9329C21.712 16.9329 22.4214 17.0716 23.04 17.3489C23.6694 17.6156 24.16 18.0209 24.512 18.5649C24.8747 19.0983 25.056 19.7703 25.056 20.5809V21.0609H22.976V20.5809C22.976 20.1543 22.8907 19.8129 22.72 19.5569C22.56 19.2903 22.3254 19.0983 22.016 18.9809C21.7067 18.8529 21.3387 18.7889 20.912 18.7889C20.272 18.7889 19.7974 18.9116 19.488 19.1569C19.1894 19.3916 19.04 19.7169 19.04 20.1329C19.04 20.4103 19.1094 20.6449 19.248 20.8369C19.3974 21.0289 19.616 21.1889 19.904 21.3169C20.192 21.4449 20.56 21.5569 21.008 21.6529L21.376 21.7329C22.176 21.9036 22.8694 22.1223 23.456 22.3889C24.0534 22.6556 24.5174 23.0076 24.848 23.4449C25.1787 23.8823 25.344 24.4423 25.344 25.1249C25.344 25.8076 25.168 26.4103 24.816 26.9329C24.4747 27.4449 23.984 27.8503 23.344 28.1489C22.7147 28.4369 21.968 28.5809 21.104 28.5809ZM31.1752 28.5809C29.7885 28.5809 28.6898 28.1969 27.8792 27.4289C27.0685 26.6503 26.6632 25.5409 26.6632 24.1009V21.4129C26.6632 19.9729 27.0685 18.8689 27.8792 18.1009C28.6898 17.3223 29.7885 16.9329 31.1752 16.9329C32.5512 16.9329 33.6125 17.3116 34.3592 18.0689C35.1165 18.8156 35.4952 19.8449 35.4952 21.1569V21.2529H33.4152V21.0929C33.4152 20.4316 33.2285 19.8876 32.8552 19.4609C32.4925 19.0343 31.9325 18.8209 31.1752 18.8209C30.4285 18.8209 29.8418 19.0503 29.4152 19.5089C28.9885 19.9676 28.7752 20.5916 28.7752 21.3809V24.1329C28.7752 24.9116 28.9885 25.5356 29.4152 26.0049C29.8418 26.4636 30.4285 26.6929 31.1752 26.6929C31.9325 26.6929 32.4925 26.4796 32.8552 26.0529C33.2285 25.6156 33.4152 25.0716 33.4152 24.4209V24.1329H35.4952V24.3569C35.4952 25.6689 35.1165 26.7036 34.3592 27.4609C33.6125 28.2076 32.5512 28.5809 31.1752 28.5809ZM37.216 28.3569V17.1569H42.08C42.784 17.1569 43.3974 17.2796 43.92 17.5249C44.4427 17.7703 44.848 18.1169 45.136 18.5649C45.424 19.0129 45.568 19.5409 45.568 20.1489V20.3409C45.568 21.0129 45.408 21.5569 45.088 21.9729C44.768 22.3889 44.3734 22.6929 43.904 22.8849V23.1729C44.3307 23.1943 44.6614 23.3436 44.896 23.6209C45.1307 23.8876 45.248 24.2449 45.248 24.6929V28.3569H43.136V24.9969C43.136 24.7409 43.0667 24.5329 42.928 24.3729C42.8 24.2129 42.5814 24.1329 42.272 24.1329H39.328V28.3569H37.216ZM39.328 22.2129H41.856C42.3574 22.2129 42.7467 22.0796 43.024 21.8129C43.312 21.5356 43.456 21.1729 43.456 20.7249V20.5649C43.456 20.1169 43.3174 19.7596 43.04 19.4929C42.7627 19.2156 42.368 19.0769 41.856 19.0769H39.328V22.2129ZM51.6774 28.5809C50.2694 28.5809 49.1494 28.1969 48.3174 27.4289C47.4854 26.6503 47.0694 25.5409 47.0694 24.1009V21.4129C47.0694 19.9729 47.4854 18.8689 48.3174 18.1009C49.1494 17.3223 50.2694 16.9329 51.6774 16.9329C53.0854 16.9329 54.2054 17.3223 55.0374 18.1009C55.8694 18.8689 56.2854 19.9729 56.2854 21.4129V24.1009C56.2854 25.5409 55.8694 26.6503 55.0374 27.4289C54.2054 28.1969 53.0854 28.5809 51.6774 28.5809ZM51.6774 26.6929C52.4667 26.6929 53.0801 26.4636 53.5174 26.0049C53.9547 25.5463 54.1734 24.9329 54.1734 24.1649V21.3489C54.1734 20.5809 53.9547 19.9676 53.5174 19.5089C53.0801 19.0503 52.4667 18.8209 51.6774 18.8209C50.8987 18.8209 50.2854 19.0503 49.8374 19.5089C49.4001 19.9676 49.1814 20.5809 49.1814 21.3489V24.1649C49.1814 24.9329 49.4001 25.5463 49.8374 26.0049C50.2854 26.4636 50.8987 26.6929 51.6774 26.6929ZM58.1379 28.3569V17.1569H60.2499V26.4369H65.3699V28.3569H58.1379ZM66.8098 28.3569V17.1569H68.9218V26.4369H74.0418V28.3569H66.8098ZM81.1674 28.3569V19.0769H77.9034V17.1569H86.5434V19.0769H83.2794V28.3569H81.1674ZM91.8805 28.5809C90.4725 28.5809 89.3525 28.1969 88.5205 27.4289C87.6885 26.6503 87.2725 25.5409 87.2725 24.1009V21.4129C87.2725 19.9729 87.6885 18.8689 88.5205 18.1009C89.3525 17.3223 90.4725 16.9329 91.8805 16.9329C93.2885 16.9329 94.4085 17.3223 95.2405 18.1009C96.0725 18.8689 96.4885 19.9729 96.4885 21.4129V24.1009C96.4885 25.5409 96.0725 26.6503 95.2405 27.4289C94.4085 28.1969 93.2885 28.5809 91.8805 28.5809ZM91.8805 26.6929C92.6699 26.6929 93.2832 26.4636 93.7205 26.0049C94.1579 25.5463 94.3765 24.9329 94.3765 24.1649V21.3489C94.3765 20.5809 94.1579 19.9676 93.7205 19.5089C93.2832 19.0503 92.6699 18.8209 91.8805 18.8209C91.1019 18.8209 90.4885 19.0503 90.0405 19.5089C89.6032 19.9676 89.3845 20.5809 89.3845 21.3489V24.1649C89.3845 24.9329 89.6032 25.5463 90.0405 26.0049C90.4885 26.4636 91.1019 26.6929 91.8805 26.6929ZM102.404 28.3569V17.1569H104.516V26.4369H109.636V28.3569H102.404ZM111.075 28.3569V17.1569H118.275V19.0769H113.187V21.7489H117.827V23.6689H113.187V26.4369H118.371V28.3569H111.075ZM119.167 28.3569L122.111 17.1569H125.791L128.735 28.3569H126.559L125.951 25.8929H121.951L121.343 28.3569H119.167ZM122.447 23.9409H125.455L124.095 18.4849H123.807L122.447 23.9409ZM130.075 28.3569V17.1569H134.939C135.643 17.1569 136.257 17.2796 136.779 17.5249C137.302 17.7703 137.707 18.1169 137.995 18.5649C138.283 19.0129 138.427 19.5409 138.427 20.1489V20.3409C138.427 21.0129 138.267 21.5569 137.947 21.9729C137.627 22.3889 137.233 22.6929 136.763 22.8849V23.1729C137.19 23.1943 137.521 23.3436 137.755 23.6209C137.99 23.8876 138.107 24.2449 138.107 24.6929V28.3569H135.995V24.9969C135.995 24.7409 135.926 24.5329 135.787 24.3729C135.659 24.2129 135.441 24.1329 135.131 24.1329H132.187V28.3569H130.075ZM132.187 22.2129H134.715C135.217 22.2129 135.606 22.0796 135.883 21.8129C136.171 21.5356 136.315 21.1729 136.315 20.7249V20.5649C136.315 20.1169 136.177 19.7596 135.899 19.4929C135.622 19.2156 135.227 19.0769 134.715 19.0769H132.187V22.2129ZM140.185 28.3569V17.1569H144.201L146.425 26.9169H146.713V17.1569H148.793V28.3569H144.777L142.553 18.5969H142.265V28.3569H140.185ZM154.966 28.3569V17.1569H158.886L160.822 26.9169H161.11L163.046 17.1569H166.966V28.3569H164.918V18.7089H164.63L162.71 28.3569H159.222L157.302 18.7089H157.014V28.3569H154.966ZM173.427 28.5809C172.019 28.5809 170.899 28.1969 170.067 27.4289C169.235 26.6503 168.819 25.5409 168.819 24.1009V21.4129C168.819 19.9729 169.235 18.8689 170.067 18.1009C170.899 17.3223 172.019 16.9329 173.427 16.9329C174.835 16.9329 175.955 17.3223 176.787 18.1009C177.619 18.8689 178.035 19.9729 178.035 21.4129V24.1009C178.035 25.5409 177.619 26.6503 176.787 27.4289C175.955 28.1969 174.835 28.5809 173.427 28.5809ZM173.427 26.6929C174.217 26.6929 174.83 26.4636 175.267 26.0049C175.705 25.5463 175.923 24.9329 175.923 24.1649V21.3489C175.923 20.5809 175.705 19.9676 175.267 19.5089C174.83 19.0503 174.217 18.8209 173.427 18.8209C172.649 18.8209 172.035 19.0503 171.587 19.5089C171.15 19.9676 170.931 20.5809 170.931 21.3489V24.1649C170.931 24.9329 171.15 25.5463 171.587 26.0049C172.035 26.4636 172.649 26.6929 173.427 26.6929ZM179.888 28.3569V17.1569H184.752C185.456 17.1569 186.069 17.2796 186.592 17.5249C187.115 17.7703 187.52 18.1169 187.808 18.5649C188.096 19.0129 188.24 19.5409 188.24 20.1489V20.3409C188.24 21.0129 188.08 21.5569 187.76 21.9729C187.44 22.3889 187.045 22.6929 186.576 22.8849V23.1729C187.003 23.1943 187.333 23.3436 187.568 23.6209C187.803 23.8876 187.92 24.2449 187.92 24.6929V28.3569H185.808V24.9969C185.808 24.7409 185.739 24.5329 185.6 24.3729C185.472 24.2129 185.253 24.1329 184.944 24.1329H182V28.3569H179.888ZM182 22.2129H184.528C185.029 22.2129 185.419 22.0796 185.696 21.8129C185.984 21.5356 186.128 21.1729 186.128 20.7249V20.5649C186.128 20.1169 185.989 19.7596 185.712 19.4929C185.435 19.2156 185.04 19.0769 184.528 19.0769H182V22.2129ZM189.997 28.3569V17.1569H197.197V19.0769H192.109V21.7489H196.749V23.6689H192.109V26.4369H197.293V28.3569H189.997ZM206.103 28.4529L202.343 24.6929L203.623 23.4129L205.303 25.0929L205.703 25.7489L205.975 25.6529L205.847 24.8849V17.1569H207.799V24.8849L207.671 25.6529L207.943 25.7489L208.343 25.0929L210.023 23.4129L211.303 24.6929L207.543 28.4529H206.103ZM216.025 28.4529L212.265 24.6929L213.545 23.4129L215.225 25.0929L215.625 25.7489L215.897 25.6529L215.769 24.8849V17.1569H217.721V24.8849L217.593 25.6529L217.865 25.7489L218.265 25.0929L219.945 23.4129L221.225 24.6929L217.465 28.4529H216.025Z" fill="#CBF3FB"/>
<defs>
<filter id="filter0_d_498_520" x="0.594482" y="0.4104" width="241.253" height="60.4826" filterUnits="userSpaceOnUse" color-interpolation-filters="sRGB">
<feFlood flood-opacity="0" result="BackgroundImageFix"/>
<feColorMatrix in="SourceAlpha" type="matrix" values="0 0 0 0 0 0 0 0 0 0 0 0 0 0 0 0 0 0 127 0" result="hardAlpha"/>
<feOffset dx="3.44218" dy="4.58957"/>
<feComposite in2="hardAlpha" operator="out"/>
<feColorMatrix type="matrix" values="0 0 0 0 0.054902 0 0 0 0 0.160784 0 0 0 0 0.427451 0 0 0 1 0"/>
<feBlend mode="normal" in2="BackgroundImageFix" result="effect1_dropShadow_498_520"/>
<feBlend mode="normal" in="SourceGraphic" in2="effect1_dropShadow_498_520" result="shape"/>
</filter>
</defs>
</svg>
